<?xml version="1.0" standalone="no"?>
<!DOCTYPE svg PUBLIC "-//W3C//DTD SVG 20010904//EN"
 "http://www.w3.org/TR/2001/REC-SVG-20010904/DTD/svg10.dtd">
<svg version="1.0" xmlns="http://www.w3.org/2000/svg"
 width="1024.000000pt" height="1024.000000pt" viewBox="0 0 1024.000000 1024.000000"
 preserveAspectRatio="xMidYMid meet">

<g transform="translate(0.000000,1024.000000) scale(0.100000,-0.100000)"
fill="#000000" stroke="none">
<path d="M0 5120 l0 -5120 5120 0 5120 0 0 5120 0 5120 -5120 0 -5120 0 0
-5120z m7725 4745 c218 -58 440 -247 554 -471 71 -141 65 -291 -21 -509 -77
-193 -173 -311 -489 -598 -97 -88 -200 -203 -241 -268 -30 -48 -48 -130 -38
-174 11 -51 72 -108 167 -157 192 -100 383 -127 908 -128 436 -1 568 -16 701
-82 185 -90 325 -317 412 -668 46 -189 32 -404 -42 -635 -15 -44 -30 -89 -35
-100 -6 -11 -24 -53 -41 -94 -60 -139 -184 -359 -288 -511 -127 -184 -336
-450 -461 -585 -89 -96 -442 -447 -491 -488 -25 -20 -58 -48 -75 -62 -50 -42
-225 -124 -310 -146 -104 -27 -304 -29 -418 -5 -314 67 -627 243 -857 483 -85
88 -295 327 -380 433 -24 30 -47 57 -51 60 -14 11 -15 38 -2 85 8 28 19 68 23
90 19 85 24 100 42 119 22 24 24 31 39 154 10 87 44 215 68 261 6 11 15 52 21
93 12 88 35 184 56 234 12 27 15 67 13 153 -4 200 10 454 27 472 14 15 30 94
26 129 -13 128 -19 282 -12 310 11 43 6 92 -15 150 -9 25 -19 81 -22 125 -2
44 -11 100 -18 125 -7 25 -18 67 -25 95 -6 27 -17 57 -24 65 -8 8 -28 47 -46
85 -55 122 -63 136 -91 156 -19 13 -29 32 -34 59 -4 23 -18 54 -32 70 -14 17
-26 36 -27 43 -1 8 -11 27 -21 43 -11 16 -36 61 -56 100 l-35 71 170 7 c319
13 558 51 664 105 60 31 113 80 133 126 37 81 20 176 -60 349 -73 155 -94 231
-89 319 6 129 69 229 228 364 175 150 388 203 595 148z m-3832 -270 c44 -7 40
-25 -6 -26 l-32 -1 30 -9 c17 -5 82 -16 145 -24 63 -7 127 -18 141 -23 14 -6
68 -13 120 -17 52 -4 112 -11 134 -16 22 -5 54 -12 71 -14 88 -13 187 -36 216
-49 18 -8 59 -20 90 -26 32 -6 60 -16 63 -21 4 -5 23 -9 43 -9 42 -1 75 -21
67 -41 -7 -19 70 -62 95 -54 20 6 60 -13 60 -30 0 -17 59 -67 71 -59 7 4 10 1
7 -7 -4 -10 -19 -13 -52 -12 -25 2 -46 -1 -46 -6 0 -13 59 -48 94 -57 25 -6
28 -4 23 10 -4 10 -1 16 8 16 8 0 15 -4 15 -10 0 -5 8 -10 18 -10 9 0 31 -9
47 -19 29 -18 105 -87 105 -95 0 -8 -68 2 -88 13 -12 6 -35 11 -52 11 -36 0
-209 85 -217 107 -6 15 -54 38 -128 59 -110 32 -155 36 -155 13 0 -14 82 -56
154 -78 38 -12 74 -25 80 -30 6 -5 40 -21 76 -36 36 -15 73 -34 82 -42 21 -19
13 -43 -16 -43 -18 0 -14 -7 25 -45 53 -50 67 -75 41 -75 -27 0 -120 52 -125
70 -4 15 -137 96 -137 83 0 -7 54 -52 63 -53 4 0 21 -10 37 -22 58 -42 18 -35
-82 16 -57 29 -125 60 -153 70 -27 10 -59 22 -70 26 -11 5 -37 11 -58 14 -33
4 -37 3 -27 -9 7 -8 20 -15 29 -15 9 0 23 -5 31 -11 12 -9 12 -10 -4 -5 -20 7
-49 -11 -40 -25 3 -5 16 -9 29 -9 32 0 42 -18 13 -24 -34 -6 -66 -5 -138 5
-36 5 -91 11 -123 14 -32 3 -67 10 -79 16 -12 6 -53 13 -92 14 -107 5 -104 4
-83 16 9 6 15 14 12 20 -8 12 -65 12 -65 -1 0 -14 -27 -12 -33 3 -4 9 -8 9
-15 -2 -6 -9 -33 -14 -74 -16 -37 -1 -80 -9 -99 -19 -29 -15 -64 -17 -226 -17
-120 0 -193 -3 -193 -9 0 -6 8 -10 17 -10 9 0 13 -3 10 -6 -4 -4 -53 -7 -110
-7 -63 0 -115 -4 -133 -12 -16 -8 -23 -14 -16 -14 24 -2 12 -21 -13 -21 -14 0
-37 -7 -50 -16 -23 -15 -25 -15 -25 0 0 18 -5 19 -35 6 -14 -6 -15 -9 -5 -10
12 0 11 -4 -4 -15 -25 -19 -36 -19 -36 0 0 14 -3 13 -25 -1 -14 -9 -35 -14
-47 -11 -12 4 -32 -1 -47 -12 -14 -9 -39 -18 -56 -19 -16 -1 -41 -6 -55 -11
-34 -13 -210 -32 -238 -27 -16 4 -25 0 -29 -12 -20 -62 -40 -102 -50 -102 -7
0 -13 6 -13 13 -1 6 -7 1 -14 -13 -8 -14 -12 -28 -10 -32 8 -13 -17 -20 -31
-8 -11 9 -18 8 -32 -6 -10 -10 -18 -21 -18 -25 0 -18 -15 -19 -50 -2 -29 14
-39 15 -42 6 -3 -7 -13 -13 -24 -13 -10 0 -19 -7 -19 -15 0 -20 -16 -19 -24 1
-4 11 -14 15 -31 12 -17 -4 -25 -1 -25 8 0 10 -13 14 -40 14 -34 0 -40 -3 -40
-21 0 -11 -4 -17 -10 -14 -5 3 -10 -3 -10 -13 0 -21 -26 -49 -32 -35 -1 5 -16
18 -32 31 -25 19 -23 28 7 23 9 -1 9 21 1 43 -10 26 -27 18 -22 -9 5 -22 2
-25 -21 -25 -25 0 -27 3 -23 35 5 38 -1 43 -24 21 -21 -22 -17 -39 14 -58 17
-11 22 -18 12 -19 -8 -1 1 -5 20 -9 l35 -7 -37 -2 c-31 -1 -38 -5 -38 -21 0
-14 -7 -20 -23 -20 -31 0 -57 47 -57 102 0 24 -7 53 -15 64 -20 27 -20 51 0
34 9 -7 15 -8 15 -2 0 5 -7 12 -15 16 -9 3 -15 18 -15 35 0 21 -6 32 -20 36
-11 3 -20 11 -20 17 0 5 7 7 16 4 9 -3 20 -6 25 -6 5 0 9 -7 9 -15 0 -53 53
31 65 102 3 23 16 54 27 68 l19 25 -24 0 c-13 0 -41 -13 -62 -30 -21 -16 -41
-30 -46 -30 -4 0 -15 -20 -25 -45 -9 -25 -21 -45 -27 -45 -5 0 -7 -9 -4 -19 3
-13 -7 -32 -28 -56 -32 -34 -54 -89 -41 -102 3 -3 13 9 23 26 34 61 38 65 60
52 15 -7 20 -17 16 -32 -3 -11 -1 -37 5 -57 50 -174 61 -202 80 -202 7 0 11
-4 8 -8 -5 -9 16 -77 27 -88 10 -11 9 -44 -2 -44 -5 0 -7 -10 -3 -22 5 -23 5
-23 -16 -4 -39 34 -32 12 10 -33 23 -24 38 -36 34 -26 -5 15 -4 16 9 5 8 -7
15 -18 15 -24 0 -7 9 -22 21 -35 12 -12 19 -25 16 -27 -11 -11 -55 24 -145
115 -79 78 -93 98 -89 118 3 19 -4 35 -28 62 -38 41 -68 108 -54 116 11 8 12
75 0 94 -7 11 -11 10 -19 -5 -14 -28 -34 -119 -32 -146 4 -45 2 -49 -20 -36
-11 7 -23 27 -26 45 -3 17 -16 45 -28 62 l-22 29 2 -91 c1 -85 19 -207 46
-332 16 -69 19 -113 8 -120 -36 -22 -145 216 -175 385 l-13 75 -1 -72 c-1 -62
4 -84 40 -170 23 -54 49 -123 59 -153 19 -57 50 -183 46 -187 -8 -9 -75 114
-97 177 -15 42 -52 123 -82 181 l-55 106 -4 -56 c-3 -34 0 -71 8 -95 8 -21 14
-46 13 -55 0 -9 -5 -1 -10 17 -7 22 -16 32 -29 32 -13 0 -27 14 -40 40 -18 35
-23 39 -40 30 -32 -17 -40 -12 -40 26 0 35 43 124 61 124 5 0 9 7 9 15 0 23
29 75 41 75 6 0 7 -9 3 -22 -6 -20 -5 -21 9 -10 24 20 87 131 87 154 0 11 23
57 50 102 28 44 55 88 60 96 5 8 16 32 25 52 19 42 86 113 130 135 16 9 35 22
43 29 7 8 23 14 34 14 11 0 29 11 40 25 11 14 25 25 31 25 17 1 87 65 88 82 0
18 44 51 126 95 67 36 70 37 178 36 98 0 116 -3 170 -28 33 -15 63 -33 67 -39
4 -6 29 -10 55 -9 26 1 61 2 77 2 16 0 39 7 52 16 13 8 30 15 37 15 8 0 22 9
32 20 10 11 23 20 28 20 11 0 40 13 192 85 63 30 108 45 150 49 34 3 77 12 98
21 49 20 56 19 67 -11 6 -14 15 -22 21 -19 6 4 8 13 5 21 -7 19 8 18 24 -1 16
-19 73 -19 125 1 65 26 137 46 178 51 27 4 37 9 33 19 -3 9 7 17 32 23 62 16
75 17 122 9 25 -4 62 -10 83 -13z m1183 -301 c18 -15 18 -15 -6 -10 -14 3 -33
6 -42 6 -10 0 -18 5 -18 10 0 16 44 12 66 -6z m-946 -294 c0 -5 -7 -10 -15
-10 -8 0 -15 5 -15 10 0 6 7 10 15 10 8 0 15 -4 15 -10z m57 4 c-3 -3 -12 -4
-19 -1 -8 3 -5 6 6 6 11 1 17 -2 13 -5z m-369 -41 c-10 -2 -28 -2 -40 0 -13 2
-5 4 17 4 22 1 32 -1 23 -4z m715 -20 c-7 -2 -19 -2 -25 0 -7 3 -2 5 12 5 14
0 19 -2 13 -5z m-108 -44 c5 -5 15 -9 23 -9 18 0 84 -31 78 -37 -2 -2 -21 3
-41 11 -21 9 -45 16 -54 16 -9 0 -43 9 -76 19 l-60 20 60 -6 c33 -3 64 -9 70
-14z m50 -95 c110 -35 114 -45 8 -18 -49 12 -132 25 -185 29 -54 4 -98 11 -98
15 0 25 165 9 275 -26z m95 36 c8 -5 11 -10 5 -10 -5 0 -17 5 -25 10 -8 5 -10
10 -5 10 6 0 17 -5 25 -10z m50 -26 c0 -2 -7 -4 -15 -4 -8 0 -15 4 -15 10 0 5
7 7 15 4 8 -4 15 -8 15 -10z m-810 -4 c0 -9 -110 -21 -124 -13 -5 4 -1 10 10
14 25 9 114 9 114 -1z m346 2 c5 -5 45 -14 89 -21 82 -13 181 -42 247 -71 29
-13 35 -19 26 -28 -9 -9 -8 -12 4 -12 9 0 20 -5 24 -11 7 -13 -54 -3 -71 12
-6 4 -33 12 -60 17 -28 5 -42 10 -32 11 27 2 20 20 -10 27 -16 3 -41 10 -58
14 -77 22 -203 32 -309 25 -61 -4 -131 -9 -156 -11 l-45 -3 49 20 c64 26 281
48 302 31z m38 -76 c18 -7 51 -14 74 -14 46 -1 65 -8 57 -22 -3 -5 15 -12 40
-15 25 -4 43 -11 40 -15 -3 -4 14 -10 37 -14 22 -4 51 -15 65 -25 13 -11 56
-25 96 -31 68 -12 123 -37 180 -83 22 -17 22 -17 -18 -11 -22 4 -60 17 -85 29
-25 12 -63 25 -85 28 -45 7 -207 56 -187 56 29 2 9 21 -28 27 -22 4 -40 10
-40 15 0 5 -22 9 -49 9 -27 0 -51 5 -53 11 -2 6 -41 13 -88 16 -97 6 -132 18
-85 28 17 3 37 10 45 15 22 13 46 12 84 -4z m591 -21 c41 -20 77 -40 80 -45 7
-12 -5 -7 -69 25 -27 14 -54 25 -60 25 -16 1 -52 30 -38 30 7 0 46 -16 87 -35z
m195 -66 c0 -8 4 -8 14 0 10 8 16 9 21 1 3 -5 16 -10 28 -10 15 0 18 -3 9 -9
-18 -11 -84 1 -90 17 -2 6 1 12 7 12 6 0 11 -5 11 -11z m-367 -11 c-6 -11 -35
-10 -53 2 -11 7 -5 9 22 7 20 -1 34 -5 31 -9z m859 -9 c11 -6 65 -17 121 -25
211 -31 336 -88 439 -199 42 -45 34 -51 -19 -13 -27 19 -86 54 -133 78 -123
62 -128 64 -265 90 -55 11 -118 29 -140 40 -22 11 -48 20 -60 21 -11 0 -36 7
-55 15 -34 14 -34 14 30 8 35 -3 72 -10 82 -15z m3303 -35 c116 -30 210 -108
265 -219 79 -163 60 -287 -64 -403 -133 -124 -331 -193 -559 -194 -164 -2
-255 28 -329 106 -46 49 -62 93 -62 171 1 107 54 210 169 328 80 82 152 133
245 172 126 53 234 66 335 39z m-6560 -4 c-3 -5 -1 -10 4 -10 24 0 9 -18 -21
-24 -38 -7 -44 -3 -24 17 8 8 12 17 9 21 -4 3 4 6 16 6 12 0 19 -4 16 -10z
m-488 -22 c-3 -8 -6 -5 -6 6 -1 11 2 17 5 13 3 -3 4 -12 1 -19z m3761 -1 c25
-20 -4 -24 -93 -12 -106 15 -98 13 -90 25 7 12 165 1 183 -13z m-773 -64 c44
-18 87 -35 95 -38 21 -8 54 -28 82 -48 81 -60 182 -123 262 -161 97 -48 175
-104 126 -90 -52 14 -128 54 -220 116 -80 54 -217 128 -236 128 -3 0 -40 17
-82 37 -60 29 -89 37 -132 38 -30 0 -58 4 -61 9 -4 4 -62 12 -129 17 -198 15
-182 29 30 27 182 -3 186 -4 265 -35z m1015 -13 c25 -6 54 -15 65 -20 11 -5
45 -20 75 -33 75 -33 152 -107 110 -107 -5 0 -10 4 -10 10 0 5 -10 14 -21 21
-17 9 -24 8 -36 -4 -11 -11 -23 -12 -46 -6 -87 22 -208 49 -254 55 -84 11 -52
27 41 21 44 -3 63 -2 41 2 -49 8 -65 18 -65 37 0 9 12 14 38 15 33 1 34 2 12
9 -36 12 -3 11 50 0z m-1223 -6 c-3 -3 -12 -4 -19 -1 -8 3 -5 6 6 6 11 1 17
-2 13 -5z m129 -35 c6 -5 13 -6 17 -3 8 9 47 -6 47 -18 0 -6 -11 -8 -27 -4
-40 10 -83 30 -83 38 0 8 29 0 46 -13z m242 -111 c2 -5 12 -8 22 -8 10 0 22
-5 26 -12 8 -13 -6 -9 -78 25 -26 12 -47 25 -48 29 0 9 74 -24 78 -34z m-1398
2 c34 -11 74 -20 87 -20 24 0 195 -54 265 -84 20 -9 43 -13 51 -10 22 8 95
-25 78 -35 -9 -6 -6 -10 13 -15 14 -3 26 -11 26 -16 0 -5 -8 -7 -17 -3 -10 3
5 -9 32 -28 81 -53 205 -172 193 -185 -3 -2 -29 18 -59 46 -55 52 -242 181
-314 218 -51 25 -228 82 -258 82 -12 0 -55 9 -96 20 -41 11 -104 20 -140 20
-60 1 -64 2 -47 15 28 21 112 19 186 -5z m-200 -42 c0 -5 9 -8 20 -8 27 0 25
-16 -2 -23 -13 -3 -42 -11 -66 -16 -35 -9 -46 -9 -58 4 -9 8 -24 15 -35 15
-19 0 -27 26 -9 32 20 6 150 3 150 -4z m2738 -15 c41 -19 102 -81 101 -103 0
-9 -14 2 -34 25 -19 22 -40 40 -47 40 -17 0 -68 35 -68 46 0 13 7 11 48 -8z
m-126 -15 c49 -16 157 -76 207 -115 2 -2 1 -6 -2 -10 -4 -4 -35 8 -70 27 -34
18 -91 49 -127 67 -105 55 -108 66 -8 31z m-2385 -14 c-3 -3 -12 -4 -19 -1 -8
3 -5 6 6 6 11 1 17 -2 13 -5z m5 -50 c7 -4 4 -11 -8 -17 -17 -10 -16 -12 11
-24 28 -13 25 -13 -30 -6 -118 16 -185 10 -263 -21 -39 -16 -75 -26 -80 -22
-12 13 53 60 115 84 50 19 72 21 151 17 51 -2 98 -8 104 -11z m278 -24 c8 -5
11 -10 5 -10 -5 0 -17 5 -25 10 -8 5 -10 10 -5 10 6 0 17 -5 25 -10z m1105
-28 c-3 -3 -11 0 -18 7 -9 10 -8 11 6 5 10 -3 15 -9 12 -12z m-3449 -99 c-7
-7 -46 74 -45 94 0 10 12 -6 25 -36 14 -29 23 -56 20 -58z m4554 77 c26 -22
30 -29 18 -30 -10 0 -18 5 -18 10 0 6 -5 10 -10 10 -6 0 -20 9 -32 20 -36 33
3 24 42 -10z m-2335 -80 c18 -8 17 -9 -7 -9 -15 -1 -30 4 -33 9 -7 12 12 12
40 0z m-565 -19 c0 -22 -164 -70 -295 -87 -30 -4 -30 -4 -5 7 68 31 96 41 177
63 98 27 123 30 123 17z m1477 -35 c65 -49 99 -83 91 -92 -7 -6 -168 116 -168
128 0 17 21 7 77 -36z m-2943 8 c3 -8 11 -12 17 -9 15 10 59 -34 59 -58 0 -11
-8 -26 -17 -33 -15 -10 -21 -10 -35 3 -10 9 -18 22 -18 28 0 7 -7 18 -15 25
-16 13 -21 60 -6 60 5 0 12 -7 15 -16z m-107 -26 c-3 -8 -6 -5 -6 6 -1 11 2
17 5 13 3 -3 4 -12 1 -19z m2711 -35 c-1 -17 -6 -29 -11 -26 -4 3 -6 12 -2 20
3 9 -2 27 -10 40 -15 23 -15 23 5 11 14 -9 20 -22 18 -45z m72 -26 c0 -5 4 -5
10 -2 13 8 103 -85 144 -149 51 -79 128 -217 123 -222 -6 -6 -39 26 -71 71
-16 22 -34 45 -40 50 -6 6 -26 29 -45 53 -18 23 -50 60 -71 81 -21 22 -36 42
-33 45 4 3 1 6 -5 6 -20 0 -70 50 -67 68 2 9 4 23 4 30 1 9 8 8 26 -5 13 -10
25 -22 25 -26z m-565 8 c52 -12 99 -29 180 -65 18 -8 46 -16 129 -35 19 -4 26
-9 19 -16 -16 -16 -122 6 -214 44 -46 19 -112 43 -147 53 -110 31 -83 47 33
19z m2024 -25 c101 -11 208 -37 218 -53 4 -6 -5 -7 -23 -3 -16 4 -105 20 -199
36 -244 43 -243 47 4 20z m-3914 -60 c-4 -6 10 -10 35 -10 44 0 130 -18 143
-30 15 -13 -137 2 -165 17 -28 13 -38 33 -17 33 5 0 7 -4 4 -10z m-75 -35 l45
-24 -66 -1 c-67 0 -108 17 -95 38 12 19 68 13 116 -13z m2220 -50 c24 -14 23
-14 -27 -15 -41 0 -53 4 -53 15 0 19 46 19 80 0z m-2273 -71 c-3 -3 -12 -4
-19 -1 -8 3 -5 6 6 6 11 1 17 -2 13 -5z m-771 -79 c101 -49 211 -143 445 -382
109 -109 215 -214 238 -232 46 -38 50 -47 21 -56 -11 -3 -20 -11 -20 -17 0 -6
9 -8 20 -4 11 3 29 9 40 12 12 4 20 2 20 -5 0 -6 -13 -14 -30 -17 -16 -4 -30
-10 -30 -15 0 -7 12 -6 72 6 45 10 41 -13 -9 -42 -27 -15 -53 -34 -60 -43 -10
-12 -12 -8 -13 24 0 25 -4 36 -9 30 -14 -14 0 -66 19 -71 12 -3 15 -13 13 -36
-3 -29 -2 -30 9 -13 7 11 23 30 34 42 12 13 20 24 18 26 -2 2 11 12 28 23 l31
18 -19 -26 c-10 -15 -22 -27 -26 -27 -14 0 -58 -113 -49 -124 19 -22 40 -102
56 -211 24 -157 24 -155 14 -155 -5 0 -9 7 -9 17 0 9 -2 14 -5 11 -8 -8 21
-148 39 -188 18 -41 21 -31 6 20 -11 38 -3 121 10 100 4 -7 5 -20 3 -30 -3
-10 3 -44 12 -75 9 -31 14 -69 11 -84 -3 -14 3 -48 13 -76 57 -151 101 -257
118 -282 11 -15 28 -48 38 -73 48 -111 79 -86 41 32 -25 76 -40 148 -50 231
-7 56 -1 62 107 127 98 60 163 78 325 95 210 22 308 46 255 61 -24 7 -32 22
-10 21 51 -2 57 2 57 41 0 20 -10 55 -23 76 -26 46 -77 88 -84 69 -3 -10 -10
-9 -26 2 -37 24 -287 21 -295 -4 -2 -6 -16 -8 -33 -4 -31 6 -77 -11 -92 -34
-4 -7 -18 -13 -31 -13 -28 0 -46 -19 -80 -88 -20 -39 -24 -57 -16 -66 7 -10 5
-20 -9 -37 -11 -13 -23 -21 -27 -17 -4 4 -2 13 3 20 6 7 13 38 17 68 l6 55
-26 -59 c-14 -32 -23 -67 -21 -77 6 -21 -12 -84 -38 -139 l-16 -35 5 42 c3 23
9 49 13 59 4 12 3 15 -5 10 -7 -4 -12 -3 -12 3 0 5 4 12 9 15 5 3 11 16 13 28
3 13 22 79 42 147 34 115 37 135 42 290 3 91 7 171 9 177 2 6 17 9 34 6 27 -4
31 -1 31 18 0 13 -14 46 -31 73 -30 49 -31 53 -24 131 13 164 83 417 141 514
18 31 40 71 49 89 8 17 25 35 37 39 13 4 26 12 30 18 5 7 66 12 175 14 190 4
221 -4 318 -77 28 -21 77 -53 110 -71 33 -19 88 -53 122 -77 35 -24 69 -43 77
-43 8 0 18 -5 21 -10 6 -10 76 -45 233 -117 56 -26 64 -26 342 -34 363 -9 598
-40 832 -110 164 -49 328 -158 386 -259 28 -49 81 -123 108 -154 98 -110 145
-198 234 -436 32 -85 65 -168 73 -185 77 -155 109 -230 122 -290 24 -106 45
-165 59 -165 7 0 17 -15 23 -32 l10 -33 7 45 c4 25 16 63 25 85 10 22 23 52
29 68 7 15 19 27 30 27 9 0 26 15 36 33 29 49 151 159 181 163 37 4 72 29 90
65 27 51 11 56 -35 11 -24 -23 -48 -42 -53 -42 -24 0 26 132 69 179 35 40 62
39 103 -3 28 -29 42 -63 83 -193 66 -212 78 -266 78 -349 0 -70 -20 -161 -44
-199 -35 -54 -106 -195 -106 -209 0 -26 24 -18 46 17 48 74 74 128 108 225 32
92 37 122 48 267 10 149 9 173 -7 251 -11 54 -34 118 -62 172 -33 65 -40 87
-31 94 55 34 112 -66 140 -249 9 -59 8 -107 -7 -260 -21 -215 -56 -373 -110
-496 -45 -100 -58 -135 -80 -210 -23 -82 -71 -132 -138 -147 -93 -21 -177 20
-262 129 -38 48 -40 50 -48 28 -5 -12 -13 -105 -18 -207 -5 -102 -14 -216 -20
-255 -12 -83 -39 -175 -52 -175 -4 0 -5 -10 -2 -22 7 -23 7 -23 -8 -3 -9 11
-19 17 -23 12 -4 -4 -3 -7 3 -7 8 0 8 -12 1 -37 -5 -21 -10 -43 -10 -50 -1 -7
-6 -11 -12 -10 -5 1 -16 -16 -23 -38 -17 -49 -21 -53 -34 -35 -8 11 -10 8 -6
-12 4 -28 -7 -39 -16 -15 -3 6 -3 -3 0 -20 6 -34 4 -37 -20 -27 -9 3 -12 14
-9 31 6 32 -17 28 -34 -6 -6 -12 -21 -29 -33 -37 -11 -8 -21 -22 -21 -30 0 -8
-6 -14 -14 -14 -8 0 -27 -22 -42 -49 -15 -26 -40 -57 -56 -67 -15 -10 -31 -28
-34 -39 -10 -31 -29 -46 -43 -32 -8 8 -11 7 -11 -5 0 -9 -18 -31 -40 -48 -22
-17 -40 -37 -40 -44 0 -12 -131 -146 -255 -260 -35 -33 -61 -65 -58 -70 3 -6
3 -8 -2 -4 -4 4 -20 -2 -36 -13 -15 -10 -32 -18 -37 -17 -13 4 -95 -70 -89
-79 3 -5 -5 -10 -19 -11 -18 -1 -24 3 -24 17 0 10 -7 21 -15 25 -8 3 -14 9
-13 13 5 16 -34 123 -42 118 -9 -6 -4 -30 10 -50 4 -5 10 -22 14 -38 8 -32 -9
-37 -19 -6 -5 15 -9 18 -15 9 -11 -17 0 -51 19 -58 20 -8 51 -45 45 -54 -3 -4
-20 2 -39 15 -26 16 -35 29 -35 50 0 16 -5 27 -14 27 -10 0 -12 -9 -6 -40 4
-22 4 -40 0 -40 -4 0 -10 -8 -13 -19 -2 -10 -16 -20 -31 -23 -22 -4 -30 -1
-38 18 -17 36 -31 29 -24 -11 6 -29 4 -35 -11 -36 -11 0 -13 -3 -5 -6 17 -7
15 -20 -8 -43 -12 -12 -18 -26 -14 -32 4 -7 3 -8 -4 -4 -7 4 -12 13 -12 19 0
7 -9 18 -20 25 -18 11 -20 10 -20 -19 0 -19 -4 -28 -11 -24 -5 4 -9 17 -8 28
3 40 -1 57 -12 57 -7 0 -9 -19 -5 -54 4 -45 2 -54 -10 -49 -8 3 -14 9 -14 14
0 5 -4 9 -10 9 -5 0 -10 -7 -10 -16 0 -9 -7 -14 -17 -12 -10 1 -24 -1 -30 -5
-8 -5 -13 -3 -13 3 0 14 -41 3 -52 -14 -5 -7 -8 -3 -8 9 0 16 -2 17 -10 5 -10
-16 -90 -25 -90 -10 0 17 -27 11 -35 -7 -6 -17 -7 -17 -20 0 -13 18 -14 18
-23 1 -7 -13 -20 -18 -41 -16 -17 1 -44 -4 -61 -13 -16 -8 -36 -12 -45 -9 -9
4 -27 1 -40 -6 -19 -10 -27 -10 -39 -1 -17 14 -36 7 -36 -15 0 -19 -39 -18
-46 1 -5 11 -11 12 -24 5 -23 -12 -81 -2 -97 17 -6 8 -17 13 -24 11 -7 -2 -21
4 -31 14 -21 21 -58 24 -58 6 0 -22 14 -36 43 -43 32 -8 39 -17 31 -39 -9 -22
-25 -20 -31 5 -4 13 -12 19 -25 17 -10 -2 -18 -7 -18 -11 1 -5 -6 -14 -15 -21
-14 -10 -11 -16 23 -51 40 -42 145 -85 207 -85 17 0 48 -5 70 -10 62 -15 415
-14 448 1 21 10 30 10 39 1 9 -9 9 -12 0 -12 -15 0 -16 -32 -1 -47 8 -8 20 -8
40 -1 30 10 37 22 18 33 -6 4 -8 13 -5 21 3 8 1 14 -5 14 -6 0 -7 4 -4 10 3 6
18 10 32 10 21 0 24 -2 13 -15 -14 -17 -3 -20 19 -6 12 8 12 12 2 25 -12 14
-10 16 16 16 16 0 38 7 49 15 10 8 26 15 34 15 21 0 123 43 139 58 7 7 34 23
60 34 25 12 48 25 51 30 3 4 22 14 43 23 20 8 37 22 37 30 0 8 7 15 15 15 9 0
18 7 21 15 4 8 12 15 19 15 6 0 25 12 40 26 16 15 25 19 22 10 -4 -9 -2 -16 4
-16 10 0 29 41 23 51 -2 3 10 19 26 34 17 16 30 35 30 42 0 7 6 13 13 13 6 0
36 27 66 60 29 33 57 60 63 60 13 0 32 21 41 43 3 9 13 17 22 17 8 0 15 5 15
10 0 6 11 15 25 20 14 5 25 13 25 18 0 4 24 33 53 64 29 30 75 82 103 114 27
33 74 88 105 124 152 176 208 276 258 454 40 140 58 252 67 396 4 63 8 122 10
130 1 8 3 29 3 46 1 38 23 40 65 7 49 -39 54 -80 49 -374 -2 -145 -4 -286 -4
-312 1 -27 -3 -56 -8 -66 -6 -10 -12 -46 -16 -80 -4 -50 -1 -71 15 -108 30
-67 41 -392 16 -477 -28 -95 -110 -235 -190 -323 -25 -28 -60 -68 -76 -88 -30
-38 -274 -298 -299 -318 -86 -73 -181 -168 -181 -183 0 -6 -12 -16 -26 -22
-14 -7 -23 -16 -20 -21 3 -4 -12 -26 -34 -47 -22 -21 -40 -46 -40 -55 0 -20
-53 -66 -58 -51 -6 18 -32 14 -39 -5 -11 -31 -54 -65 -72 -57 -9 3 -37 9 -63
11 -39 5 -48 3 -48 -10 0 -9 5 -19 10 -22 6 -4 7 -11 4 -17 -4 -6 -10 -5 -15
3 -7 11 -12 12 -29 1 -11 -6 -27 -12 -35 -12 -13 0 -20 -18 -16 -42 0 -5 -4
-8 -10 -8 -6 0 -17 -7 -25 -15 -9 -8 -26 -15 -40 -15 -33 0 -30 -18 4 -22 24
-4 25 -5 7 -12 -41 -16 -49 -24 -63 -64 -7 -23 -19 -42 -25 -42 -7 0 -5 -6 4
-13 9 -7 18 -21 21 -32 2 -14 11 -20 30 -20 15 0 28 -2 29 -5 1 -3 -1 -29 -5
-57 -5 -43 -10 -53 -26 -53 -12 0 -20 -8 -22 -22 -3 -24 -10 -25 -75 -12 -22
4 -33 2 -33 -5 0 -7 -5 -9 -11 -6 -5 4 -18 -3 -28 -14 -24 -27 -67 -28 -74 -1
-6 22 -57 29 -57 8 0 -6 -3 -8 -7 -4 -4 4 -7 19 -8 34 0 16 -6 28 -15 28 -8 1
-23 2 -32 3 -10 0 -18 8 -18 17 0 11 6 14 20 9 35 -11 23 24 -12 39 -39 16
-51 11 -43 -14 7 -23 -12 -63 -26 -55 -5 4 -7 10 -4 15 3 5 -1 12 -9 17 -8 4
-14 13 -13 18 1 6 -11 16 -26 23 -15 7 -27 20 -27 28 0 7 -7 14 -15 14 -8 0
-15 5 -15 10 0 6 -22 41 -49 78 -122 169 -186 305 -250 537 -18 66 -28 74 -52
45 -38 -46 -110 -236 -139 -365 -10 -44 -27 -111 -38 -150 -11 -38 -27 -122
-36 -185 -9 -63 -21 -126 -26 -140 -5 -14 -12 -55 -15 -92 -6 -62 -9 -68 -39
-86 -33 -20 -67 -71 -99 -152 -10 -25 -42 -92 -70 -150 -29 -57 -53 -107 -55
-111 -1 -4 10 -4 25 -1 31 6 190 136 229 187 20 27 24 41 19 65 -10 45 7 37
54 -27 55 -72 63 -94 49 -133 -12 -37 -5 -104 13 -126 11 -14 14 -13 21 5 7
20 9 19 43 -14 53 -54 60 -77 104 -338 l8 -48 -46 -40 c-160 -139 -338 -139
-477 -1 -43 42 -54 62 -69 116 l-18 66 -73 0 c-41 0 -74 3 -74 8 0 4 18 66 41
137 35 115 85 224 233 515 64 126 67 134 49 147 -54 40 -165 -30 -248 -156
-47 -71 -305 -578 -305 -598 0 -16 -13 -16 -61 -3 -33 9 -84 50 -63 50 9 0 35
85 50 160 11 57 12 143 1 174 -8 22 -7 31 2 34 8 3 9 8 1 17 -16 20 24 62 88
92 31 14 65 33 74 41 10 8 33 16 51 17 55 3 105 45 53 45 -37 0 -88 -20 -128
-51 -30 -24 -47 -29 -90 -29 -96 0 -161 -29 -125 -55 23 -17 21 -38 -6 -72
-13 -15 -27 -41 -31 -58 -4 -16 -22 -61 -40 -100 -19 -38 -37 -87 -40 -107 -4
-22 -13 -38 -20 -38 -21 0 -109 99 -102 116 4 9 -1 14 -14 14 -30 0 -25 35 9
70 15 17 35 30 44 30 9 0 21 9 26 19 12 22 -2 31 -47 31 -56 0 -216 40 -276
68 -74 35 -138 89 -171 146 -86 150 -51 399 84 583 16 23 93 94 170 157 153
127 218 195 270 280 88 145 107 262 72 431 -51 245 -140 447 -251 569 -51 55
-155 136 -220 172 -167 91 -423 306 -498 418 -94 140 -114 291 -61 463 70 227
271 403 557 489 150 45 141 39 136 92 -3 26 -7 61 -10 78 l-4 32 -128 6 c-520
28 -886 170 -1181 459 -230 226 -390 508 -457 807 -25 112 -23 340 4 441 47
175 142 317 307 457 110 93 224 105 361 37z m810 -97 c5 -7 3 -8 -6 -3 -8 5
-17 2 -24 -7 -11 -14 -45 -32 -57 -30 -4 1 -6 -10 -6 -23 0 -16 4 -22 13 -18
17 6 19 -13 3 -23 -8 -5 -8 -8 0 -13 6 -4 -5 -22 -29 -46 -50 -51 -50 -63 -2
-57 20 3 52 5 70 5 17 0 32 3 32 6 0 3 21 7 48 8 45 2 46 1 22 -12 -14 -8 -30
-14 -37 -15 -17 0 -68 -49 -60 -57 4 -3 13 0 22 7 10 8 15 9 15 2 0 -16 -37
-35 -42 -22 -2 7 -16 5 -36 -6 -50 -25 -77 -13 -91 40 -6 25 -11 60 -11 78 0
44 51 149 85 176 30 24 79 29 91 10z m4034 -53 l75 -14 -71 3 c-39 2 -79 8
-90 14 -25 15 -9 14 86 -3z m93 -252 c-7 -2 -19 -2 -25 0 -7 3 -2 5 12 5 14 0
19 -2 13 -5z m-4139 -18 c-4 -9 -1 -15 7 -15 7 0 -3 -16 -22 -36 l-34 -36 34
17 c39 19 34 5 -9 -25 l-29 -21 -31 42 c-35 48 -37 59 -12 59 9 0 35 7 57 15
22 8 41 14 42 15 1 0 0 -7 -3 -15z m30 -137 c-5 -8 2 -9 24 -5 35 7 36 -9 2
-31 -17 -10 -25 -9 -46 5 l-26 16 24 13 c29 17 31 17 22 2z m3220 -117 c3 -4
34 -18 68 -31 35 -13 57 -25 50 -27 -13 -5 -142 51 -142 61 0 9 18 7 24 -3z
m256 -106 c36 -19 61 -34 57 -35 -8 0 -128 57 -136 66 -13 12 21 -1 79 -31z
m-3400 -411 c0 -9 -6 -30 -14 -47 -8 -18 -17 -39 -19 -47 -3 -8 -6 4 -6 28 -1
45 12 82 29 82 6 0 10 -7 10 -16z m20 -134 c-6 -23 -14 -39 -17 -36 -4 3 0 24
7 46 17 52 25 45 10 -10z m43 -357 c6 -33 -6 -28 -25 10 -29 58 -31 75 -4 42
13 -16 26 -40 29 -52z m3950 -2002 c-8 -10 -31 26 -37 59 -6 35 -6 35 18 -10
13 -25 22 -47 19 -49z m2524 13 c117 -56 203 -218 203 -383 -1 -113 -52 -260
-127 -365 -149 -207 -397 -414 -644 -537 -106 -53 -137 -78 -98 -80 13 -1 29
-2 34 -4 6 -1 17 -3 25 -4 12 -1 11 -5 -5 -17 -17 -12 -18 -16 -5 -24 8 -5 17
-7 20 -5 9 6 86 -19 145 -46 28 -13 53 -23 57 -24 4 0 13 -6 20 -13 25 -25 82
-13 179 38 245 130 315 161 394 177 74 15 84 15 135 0 105 -31 190 -108 220
-200 41 -127 -78 -326 -320 -537 -168 -146 -218 -214 -227 -305 -4 -38 -1 -62
11 -86 16 -33 13 -56 -4 -29 -7 11 -10 8 -10 -13 0 -26 1 -27 16 -12 9 9 19
14 23 12 121 -65 243 -92 711 -157 346 -47 547 -144 655 -314 90 -143 92 -249
8 -481 -31 -85 -59 -130 -98 -157 -22 -15 -46 -27 -53 -28 -8 0 -25 -9 -40
-20 -14 -11 -57 -30 -96 -42 -64 -20 -93 -22 -281 -22 -213 0 -230 2 -417 49
-47 12 -171 74 -188 94 -3 3 -18 13 -34 21 -40 21 -166 158 -166 182 0 11 -44
64 -105 127 -75 77 -104 113 -99 125 3 9 9 16 13 16 4 0 24 34 45 75 21 41 42
75 47 75 5 0 9 9 9 19 0 11 4 22 10 26 18 11 112 214 107 230 -4 8 -2 15 3 15
6 0 10 7 10 15 0 23 -22 18 -57 -15 -18 -17 -36 -30 -42 -30 -5 0 -11 -5 -13
-12 -2 -6 -40 -30 -84 -53 -43 -23 -78 -47 -76 -54 1 -6 -23 -23 -53 -36 -32
-14 -55 -31 -55 -40 0 -8 -7 -15 -16 -15 -9 0 -28 -10 -42 -21 -25 -20 -25
-21 -4 -15 13 5 22 3 22 -3 0 -6 -8 -11 -17 -11 -16 -1 -16 -2 2 -17 l20 -16
-20 8 c-11 5 -41 7 -67 6 -26 -1 -57 3 -68 9 -15 8 -20 8 -20 -2 0 -9 -3 -9
-10 2 -9 13 -10 13 -10 0 0 -13 -1 -13 -10 0 -6 10 -10 11 -10 3 0 -8 -13 -13
-32 -13 -18 0 -44 -6 -58 -13 -21 -11 -25 -20 -26 -61 0 -27 6 -67 14 -90 29
-85 -19 -227 -95 -278 -47 -31 -133 -78 -143 -78 -5 0 1 19 12 42 11 23 23 60
26 83 2 22 8 45 12 50 3 6 14 33 24 60 10 28 21 59 25 70 5 11 19 47 31 80 13
33 34 83 47 112 12 28 23 58 23 67 0 8 9 18 20 21 11 3 20 13 20 21 0 8 4 13
9 9 6 -3 15 11 20 32 9 33 52 83 72 83 4 0 12 13 17 29 7 19 19 31 33 33 22 3
44 46 55 108 8 44 13 50 41 50 22 0 25 2 13 10 -12 8 -10 10 9 10 21 0 23 3
18 35 -6 35 11 65 35 65 6 0 0 9 -13 20 -22 18 -25 18 -37 2 -9 -12 -15 -14
-20 -5 -6 10 -14 9 -36 -2 -16 -8 -36 -15 -46 -15 -10 0 -23 -7 -30 -15 -15
-19 -110 -65 -132 -65 -8 0 -20 -11 -26 -25 -6 -14 -16 -25 -20 -25 -5 0 -21
-11 -36 -25 -15 -14 -32 -25 -37 -25 -6 0 -7 -4 -4 -10 8 -12 -40 -24 -62 -15
-16 6 -16 8 5 25 12 10 22 23 22 29 0 6 5 11 10 11 6 0 10 9 10 20 0 17 5 19
25 14 19 -5 25 -2 25 9 0 9 7 23 17 32 14 14 14 18 2 26 -11 7 -11 9 4 9 9 0
17 4 17 9 0 5 10 13 22 17 28 9 45 26 58 58 5 14 15 26 22 27 34 2 53 10 77
31 14 14 52 32 83 42 46 13 59 22 64 42 6 22 10 24 43 18 22 -3 45 -17 61 -35
44 -51 169 -179 174 -179 14 0 4 31 -13 41 -10 7 -16 20 -14 29 6 22 -79 123
-226 270 -106 107 -124 120 -154 120 -30 0 -34 -3 -30 -22 4 -21 -3 -25 -64
-42 -37 -10 -77 -27 -88 -36 -11 -9 -27 -19 -35 -22 -8 -3 -46 -29 -83 -57
-37 -28 -72 -51 -77 -51 -5 0 -26 -18 -46 -39 -20 -22 -42 -37 -49 -34 -8 2
-20 -5 -27 -16 -7 -12 -16 -21 -20 -21 -16 0 -7 20 23 55 27 30 28 35 13 36
-17 1 -17 2 -1 6 9 2 17 8 17 13 0 5 16 18 35 30 19 12 33 26 29 31 -3 5 6 13
21 19 14 5 30 20 36 33 6 12 20 27 32 32 12 6 22 17 22 26 0 36 25 49 94 49
41 0 74 5 86 14 18 13 17 14 -11 19 -16 3 -65 9 -109 12 -54 4 -122 20 -210
50 -71 24 -146 46 -165 50 -60 12 -164 45 -187 60 -12 8 -31 15 -41 15 -10 0
-36 9 -57 20 -22 11 -63 24 -91 28 -32 6 -65 19 -90 39 -21 16 -64 40 -94 53
-30 12 -70 33 -88 45 -28 19 -30 24 -16 29 10 4 37 4 61 0 46 -7 56 4 29 32
-19 18 -26 18 -26 -1 0 -18 -8 -18 -40 0 -27 16 -76 21 -51 6 10 -6 5 -13 -19
-25 -44 -22 -53 -21 -100 12 -46 32 -53 47 -53 125 -1 31 -4 57 -9 57 -4 0 -5
6 -2 14 3 7 1 49 -4 92 -5 43 -6 108 -2 144 5 49 4 69 -6 80 -27 29 -40 0 -84
-185 -10 -44 -37 -132 -58 -195 -21 -63 -49 -146 -61 -185 -12 -38 -26 -79
-31 -90 -14 -33 -46 -108 -64 -147 -9 -20 -16 -40 -16 -45 0 -4 -10 -24 -22
-43 -12 -19 -23 -43 -25 -53 -4 -22 -38 -110 -59 -150 -8 -16 -14 -34 -14 -40
0 -7 -8 -28 -19 -47 -10 -19 -23 -51 -28 -70 -82 -273 -88 -290 -123 -328 -16
-18 -26 -32 -22 -33 4 0 -3 -4 -15 -9 -26 -11 -65 -2 -56 13 3 6 1 7 -6 3 -27
-17 -227 30 -426 100 -91 32 -85 30 -123 39 -18 4 -35 12 -38 16 -3 5 -15 9
-27 9 -19 0 -88 30 -205 88 -18 10 -45 29 -59 44 -14 14 -31 24 -38 22 -19 -8
-29 28 -10 38 28 16 16 26 -25 22 -24 -3 -40 -1 -40 6 0 5 5 10 11 10 6 0 9 5
7 11 -2 6 -6 9 -9 7 -12 -7 -37 24 -34 42 2 12 -3 21 -15 25 -26 8 -16 29 25
51 19 10 32 21 29 25 -7 12 36 22 49 12 7 -5 41 -8 77 -8 42 1 56 -1 40 -6
-22 -6 -21 -7 11 -8 20 -1 57 5 82 13 34 10 47 11 51 2 3 -7 7 -8 13 -1 4 6
21 15 37 20 42 14 56 41 31 59 -11 8 -17 18 -12 22 4 4 7 2 7 -5 0 -7 19 -2
50 14 27 14 56 25 65 25 8 0 15 5 15 11 0 6 7 9 15 5 8 -3 15 -1 15 4 0 6 -6
10 -14 10 -24 0 -28 18 -9 38 10 10 19 24 20 30 3 11 -59 54 -74 51 -20 -4
-31 3 -41 26 -6 14 -18 25 -27 25 -20 0 -19 23 4 61 11 17 17 38 14 45 -3 8 5
16 21 20 14 3 24 10 21 14 -7 12 13 23 26 14 8 -5 6 -10 -5 -16 -35 -20 -18
-38 57 -62 10 -3 15 -10 12 -16 -7 -11 46 -13 83 -4 25 7 28 17 9 36 -7 7 -26
31 -42 53 -17 22 -32 42 -35 45 -3 3 -5 10 -6 15 -4 32 -18 56 -31 51 -9 -4
-13 -1 -11 6 3 7 9 13 14 13 22 1 32 17 29 47 -3 17 -1 36 3 42 3 6 8 20 9 31
4 24 43 66 54 59 5 -3 9 4 9 15 0 12 9 30 20 41 11 11 20 24 20 30 0 5 6 13
13 17 6 4 18 17 25 28 7 11 22 35 33 53 12 17 25 32 30 32 5 0 9 6 9 14 0 8 3
16 8 18 11 5 141 180 167 226 6 10 16 24 23 32 25 29 101 165 107 193 4 15 10
27 15 27 8 0 12 17 29 121 14 84 44 180 56 176 5 -2 15 -12 20 -23 11 -20 37
-53 70 -88 11 -12 20 -23 20 -26 0 -8 74 -105 113 -148 17 -20 32 -45 32 -57
0 -11 9 -33 20 -50 11 -16 20 -36 20 -43 0 -7 9 -23 21 -35 11 -12 33 -42 47
-67 25 -42 58 -83 109 -137 16 -16 33 -23 61 -23 22 0 57 -7 78 -16 20 -9 58
-20 83 -24 25 -5 64 -14 86 -19 89 -22 95 -23 95 -13 0 6 -9 14 -20 17 -28 9
-25 25 4 25 18 0 33 14 61 58 64 98 190 178 470 297 176 75 183 80 335 234
167 168 210 205 300 256 194 110 329 134 447 79z m-6838 -434 c67 -13 165 -62
217 -108 110 -100 166 -244 165 -431 0 -190 -60 -347 -177 -465 -174 -175
-479 -180 -648 -10 -162 162 -234 439 -170 656 47 156 143 261 296 321 107 43
218 56 317 37z m4866 -370 c4 -6 -5 -10 -19 -10 -14 0 -26 5 -26 10 0 6 9 10
19 10 11 0 23 -4 26 -10z m130 -40 c17 -7 16 -9 -10 -9 -16 0 -37 4 -45 9 -12
8 -10 10 10 9 14 0 34 -4 45 -9z m-3125 -20 c13 -9 13 -11 0 -19 -16 -11 -43
5 -34 20 7 11 15 11 34 -1z m3207 -6 c-3 -3 -12 -4 -19 -1 -8 3 -5 6 6 6 11 1
17 -2 13 -5z m-1360 -491 c-3 -10 -5 -4 -5 12 0 17 2 24 5 18 2 -7 2 -21 0
-30z m-37 -83 c0 -5 -5 -10 -11 -10 -5 0 -7 5 -4 10 3 6 8 10 11 10 2 0 4 -4
4 -10z m-30 -18 c0 -4 -9 -8 -20 -8 -11 0 -20 4 -20 8 0 4 9 8 20 8 11 0 20
-4 20 -8z m67 -29 c-3 -10 -5 -4 -5 12 0 17 2 24 5 18 2 -7 2 -21 0 -30z
m-427 -63 c0 -11 -7 -20 -15 -20 -17 0 -18 2 -9 24 9 23 24 20 24 -4z m510
-45 c0 -9 -9 -15 -21 -15 -18 0 -19 2 -9 15 7 8 16 15 21 15 5 0 9 -7 9 -15z
m1005 5 c4 -6 15 -8 26 -5 17 6 19 3 13 -19 -5 -22 -3 -24 17 -19 15 4 20 3
15 -5 -4 -7 -15 -12 -24 -12 -16 -1 -16 -2 1 -14 23 -17 22 -26 -3 -26 -30 0
-37 -30 -13 -49 31 -26 42 -52 49 -124 8 -83 12 -89 49 -78 25 8 26 9 8 10
-31 1 -29 14 5 29 16 7 42 25 59 40 34 30 78 115 68 131 -3 6 0 9 7 6 16 -6
58 38 58 60 0 8 5 15 10 15 6 0 10 -5 10 -10 0 -6 6 -10 13 -9 25 3 35 -2 66
-33 35 -36 37 -41 16 -62 -16 -16 -20 -62 -6 -70 20 -13 22 -58 4 -73 -13 -10
-15 -16 -5 -19 13 -6 17 -34 4 -34 -11 0 -32 -99 -32 -153 0 -31 -4 -47 -12
-47 -10 0 -10 -2 0 -9 18 -11 -4 -58 -30 -67 -18 -5 -18 -7 -3 -18 16 -11 16
-13 0 -26 -22 -18 -55 -38 -77 -46 -10 -3 -18 -10 -18 -15 0 -5 -9 -4 -20 3
-16 10 -22 9 -40 -11 -16 -19 -20 -21 -20 -8 0 11 -9 17 -22 18 -13 0 -32 5
-43 10 -15 7 -12 8 15 4 19 -3 30 -2 23 1 -7 3 -17 21 -23 40 -13 40 -30 45
-30 9 0 -29 -12 -32 -34 -9 -18 17 -21 34 -7 34 5 0 12 7 15 15 4 11 -3 19
-19 25 -14 5 -26 17 -26 27 -1 10 -5 5 -10 -12 -5 -19 -6 2 -3 58 3 48 1 87
-4 87 -5 0 -17 -9 -27 -20 -19 -21 -45 -27 -45 -10 0 6 -4 10 -10 10 -15 0
-13 -177 3 -183 9 -4 9 -7 0 -14 -19 -13 6 -62 35 -69 22 -6 22 -7 5 -26 -14
-15 -28 -19 -65 -16 -44 3 -48 1 -48 -19 0 -12 -9 -27 -20 -33 -21 -11 -27
-44 -10 -55 16 -10 12 -24 -15 -41 -28 -18 -60 -11 -76 17 -7 15 -7 24 1 34 9
11 7 16 -10 25 -16 9 -21 8 -26 -4 -4 -12 -11 -13 -24 -6 -17 9 -35 50 -22 50
10 0 8 61 -2 83 -10 21 0 65 20 84 8 8 11 19 8 24 -11 18 -12 60 -1 56 13 -4
47 23 47 37 0 12 31 46 42 46 4 0 8 -8 9 -17 0 -14 2 -13 9 5 5 12 14 22 20
22 5 0 9 9 7 21 -3 28 30 50 43 29 14 -22 23 -5 10 20 -10 18 -9 24 8 36 11 7
22 28 26 46 3 18 9 44 12 58 3 14 6 34 7 45 0 11 6 23 11 28 8 5 7 9 -1 15
-12 7 -3 35 11 33 21 -3 26 2 23 27 -2 15 -7 34 -12 41 -5 9 -2 17 9 23 17 10
22 38 6 38 -5 0 -10 7 -10 15 0 17 16 20 25 5z m-1556 -196 c-8 -9 -27 -31
-44 -48 -16 -18 -38 -42 -47 -54 -17 -21 -48 -30 -48 -14 0 11 57 62 69 62 6
0 11 5 11 11 0 7 11 22 26 35 29 27 54 33 33 8z m2441 -51 c17 -3 30 -12 30
-19 0 -11 -25 -14 -121 -14 l-120 0 28 25 c26 24 33 25 91 20 34 -3 76 -8 92
-12z m1984 -34 c158 -81 209 -265 115 -413 -24 -38 -42 -53 -92 -76 -136 -61
-330 -80 -413 -40 -86 42 -144 119 -144 192 0 58 46 137 120 209 150 145 295
190 414 128z m-1919 11 c3 -5 1 -10 -4 -10 -6 0 -11 5 -11 10 0 6 2 10 4 10 3
0 8 -4 11 -10z m-2652 -89 c3 -11 -1 -32 -9 -47 -8 -14 -14 -37 -14 -50 0 -16
-6 -24 -17 -24 -10 0 -29 -17 -43 -36 -14 -20 -29 -39 -35 -44 -5 -5 -39 -35
-76 -67 -36 -32 -94 -78 -129 -103 -110 -78 -134 -108 -155 -191 -10 -41 -19
-98 -19 -126 -1 -57 -21 -73 -32 -27 -6 25 -5 36 16 139 19 93 58 155 135 213
39 29 81 58 94 65 27 13 98 95 175 202 27 37 58 70 68 73 10 2 18 13 18 23 0
25 16 24 23 0z m2623 -268 c7 -10 14 -25 14 -34 0 -10 12 -19 33 -23 21 -4 28
-9 19 -15 -7 -4 -21 -23 -31 -42 -11 -20 -27 -35 -41 -37 -12 -2 -25 -12 -27
-23 -7 -27 -31 -24 -39 6 -5 18 1 35 21 61 26 34 26 36 9 55 -9 10 -28 19 -41
19 -15 0 -23 5 -20 13 2 6 12 11 21 9 9 -2 26 4 38 13 28 19 28 19 44 -2z
m-848 -94 c2 -10 -6 -19 -18 -22 -16 -4 -20 0 -20 20 0 18 5 24 17 21 10 -2
19 -10 21 -19z m762 -15 c0 -8 -4 -12 -10 -9 -5 3 -10 10 -10 16 0 5 5 9 10 9
6 0 10 -7 10 -16z m-100 -160 c0 -2 -9 -4 -21 -4 -11 0 -18 4 -14 10 5 8 35 3
35 -6z m40 -64 c0 -5 -4 -10 -10 -10 -5 0 -10 5 -10 10 0 6 5 10 10 10 6 0 10
-4 10 -10z m-40 -29 c0 -15 -29 -33 -45 -27 -28 10 -17 36 15 36 17 0 30 -4
30 -9z m480 -35 c0 -17 -54 -58 -64 -49 -10 10 -7 25 4 18 6 -4 7 1 3 10 -3
10 0 21 8 26 22 13 49 11 49 -5z m-539 -29 c25 -19 29 -53 8 -71 -11 -9 -19
-22 -19 -29 0 -7 -13 -27 -30 -45 -17 -19 -29 -42 -27 -55 1 -16 -3 -21 -15
-19 -10 2 -18 -3 -18 -10 0 -16 -56 -99 -62 -93 -3 3 -10 -14 -17 -37 -28 -94
-45 -134 -67 -165 -13 -17 -24 -39 -24 -48 0 -19 -45 -91 -62 -99 -10 -5 -10
-7 0 -12 17 -8 15 -27 -3 -20 -20 7 -19 -4 3 -21 16 -13 15 -14 -5 -8 -36 10
-118 58 -105 63 6 2 8 10 5 18 -6 17 8 19 25 2 9 -9 12 -6 12 15 0 15 -5 27
-11 27 -6 0 -9 6 -6 13 2 6 9 12 16 12 6 0 27 27 46 60 27 47 34 55 35 36 0
-18 3 -22 11 -14 8 8 7 17 -1 34 -10 18 -10 25 1 33 23 18 39 54 33 71 -6 13
6 20 29 16 4 0 7 4 7 9 0 6 6 10 14 10 9 0 12 7 9 20 -3 11 0 27 7 35 6 8 9
19 6 24 -4 5 -2 13 4 16 6 4 8 15 5 26 -6 17 3 24 28 20 4 0 7 13 7 29 0 19 5
30 14 30 20 0 45 32 28 37 -19 7 -4 23 21 23 16 0 19 3 8 9 -19 13 -6 28 32
37 17 4 26 9 19 11 -14 6 -6 23 11 23 7 0 19 -6 28 -13z m479 -52 c0 -8 -6
-15 -13 -15 -7 0 -20 -9 -30 -20 -10 -12 -22 -18 -28 -14 -7 4 -5 12 5 23 9
10 16 23 16 29 0 7 11 12 25 12 16 0 25 -6 25 -15z m-1628 -20 c20 5 28 3 28
-7 0 -8 4 -7 11 5 12 20 39 23 39 3 0 -13 39 -30 49 -21 2 3 -1 5 -7 5 -7 0
-12 3 -12 8 0 4 24 7 54 7 53 0 92 -14 45 -16 -16 -1 -11 -4 16 -10 41 -10 91
-59 67 -67 -8 -2 -9 -9 -2 -22 8 -16 6 -22 -13 -35 -17 -11 -23 -23 -21 -42 1
-15 -6 -37 -16 -50 -10 -13 -21 -43 -25 -66 -3 -23 -11 -58 -18 -77 -6 -19
-10 -40 -9 -46 5 -26 -178 -22 -293 6 -69 17 -81 14 -92 -25 -15 -48 -88 -144
-139 -182 -64 -48 -149 -89 -239 -114 -107 -29 -224 -23 -308 15 -32 15 -55
31 -51 37 3 5 1 16 -6 24 -9 10 -4 15 24 25 23 7 33 16 30 25 -3 8 4 28 16 45
17 23 19 34 11 44 -9 11 -7 15 10 19 11 3 18 10 15 15 -3 6 8 15 25 21 19 7
28 15 23 22 -4 8 -3 9 4 5 17 -10 92 15 92 31 0 7 13 16 30 19 16 4 35 13 41
20 6 8 15 14 20 14 14 0 91 58 107 81 9 13 21 19 34 16 28 -8 48 2 48 24 0 20
28 39 59 39 23 0 91 30 91 41 0 3 18 18 40 33 22 14 40 31 40 37 0 25 32 77
45 73 7 -3 23 4 34 15 17 17 25 19 48 10 14 -5 39 -7 55 -4z m1548 -80 c0 -13
-43 -95 -50 -95 -4 0 -13 -13 -19 -30 -5 -16 -15 -30 -20 -30 -14 0 -14 37 -1
45 6 3 10 14 10 25 0 10 6 20 14 23 7 3 16 19 19 36 5 22 12 31 27 31 11 0 20
-2 20 -5z m-3679 -82 c13 -14 18 -23 12 -19 -17 10 -16 1 1 -17 12 -11 10 -18
-13 -43 -15 -16 -39 -40 -55 -54 -24 -21 -27 -22 -18 -5 5 11 13 43 17 70 8
49 21 95 28 95 2 0 14 -12 28 -27z m1839 -3 c0 -5 -15 -10 -32 -9 -31 1 -32 1
-8 9 35 11 40 11 40 0z m1714 -181 c-3 -5 -10 -7 -15 -3 -5 3 -7 10 -3 15 3 5
10 7 15 3 5 -3 7 -10 3 -15z m-14 -31 c0 -17 -18 -44 -24 -37 -8 7 5 49 15 49
5 0 9 -6 9 -12z m-2350 -310 c0 -12 -13 -9 -32 6 -26 19 -22 26 7 13 14 -7 25
-15 25 -19z"/>
<path d="M4817 9262 c-37 -8 55 -44 123 -47 36 -2 85 -11 109 -19 79 -29 101
-12 29 22 -41 18 -72 25 -182 38 -28 3 -52 6 -55 8 -3 1 -14 1 -24 -2z"/>
<path d="M2691 9169 c-14 -40 -14 -52 0 -44 16 11 31 57 21 67 -6 6 -14 -3
-21 -23z"/>
<path d="M2215 9160 c4 -6 11 -8 16 -5 14 9 11 15 -7 15 -8 0 -12 -5 -9 -10z"/>
<path d="M2306 9154 c-20 -19 -21 -34 -2 -34 7 0 16 11 18 25 6 29 5 30 -16 9z"/>
<path d="M2257 9090 c-26 -31 -20 -46 8 -20 25 23 32 40 17 40 -4 0 -15 -9
-25 -20z"/>
<path d="M2670 9086 c0 -7 -7 -19 -15 -26 -8 -7 -15 -19 -15 -26 0 -8 7 -14
15 -14 8 0 15 9 15 21 0 11 5 29 10 40 7 13 7 19 0 19 -5 0 -10 -6 -10 -14z"/>
<path d="M2020 9050 c0 -5 5 -10 10 -10 6 0 10 5 10 10 0 6 -4 10 -10 10 -5 0
-10 -4 -10 -10z"/>
<path d="M4048 9043 c6 -2 18 -2 25 0 6 3 1 5 -13 5 -14 0 -19 -2 -12 -5z"/>
<path d="M4538 9003 c7 -3 16 -2 19 1 4 3 -2 6 -13 5 -11 0 -14 -3 -6 -6z"/>
<path d="M3410 8970 c-20 -6 -14 -8 28 -9 33 -1 51 3 47 9 -7 12 -39 12 -75 0z"/>
<path d="M3338 8963 c7 -3 16 -2 19 1 4 3 -2 6 -13 5 -11 0 -14 -3 -6 -6z"/>
<path d="M2156 8938 c-3 -13 -6 -44 -6 -71 0 -26 -5 -55 -11 -65 -12 -20 5
-77 21 -67 19 12 29 74 17 106 -8 22 -9 33 -2 36 12 4 7 83 -5 83 -4 0 -10
-10 -14 -22z"/>
<path d="M1725 8810 c-16 -16 -25 -33 -22 -37 8 -7 67 45 67 59 0 16 -17 8
-45 -22z"/>
<path d="M2023 8809 c4 -16 1 -33 -8 -47 -11 -15 -12 -23 -4 -28 8 -4 7 -9 -2
-15 -8 -5 -9 -9 -4 -9 22 0 34 17 40 56 6 31 3 43 -11 54 -16 14 -17 13 -11
-11z"/>
<path d="M2748 8803 c7 -3 16 -2 19 1 4 3 -2 6 -13 5 -11 0 -14 -3 -6 -6z"/>
<path d="M2140 8629 c0 -5 5 -7 10 -4 6 3 10 8 10 11 0 2 -4 4 -10 4 -5 0 -10
-5 -10 -11z"/>
<path d="M1317 8473 c-20 -39 -31 -103 -17 -103 5 0 10 8 10 19 0 10 7 38 15
61 18 50 13 64 -8 23z"/>
<path d="M4460 8706 c0 -2 7 -7 16 -10 8 -3 12 -2 9 4 -6 10 -25 14 -25 6z"/>
<path d="M1591 6900 c0 -8 7 -31 15 -50 l14 -35 -6 40 c-5 38 -25 75 -23 45z"/>
<path d="M4105 6775 c-49 -7 -92 -14 -95 -15 -5 -3 -20 -5 -120 -14 -69 -7
-87 -11 -190 -46 -36 -12 -76 -25 -90 -28 -14 -2 -38 -14 -55 -26 -16 -11 -33
-22 -37 -22 -5 -1 -12 -2 -17 -3 -4 0 -21 -13 -36 -27 -18 -17 -30 -22 -35
-14 -10 16 -41 1 -82 -42 -21 -21 -42 -38 -48 -38 -5 0 -10 -17 -10 -37 0 -28
-3 -34 -10 -23 -8 12 -10 10 -10 -8 0 -25 25 -56 38 -48 5 3 14 -17 21 -45 16
-60 41 -71 98 -40 56 30 252 111 268 111 7 0 36 13 120 51 23 10 77 29 120 41
70 19 105 22 285 23 198 0 272 -9 305 -37 5 -4 25 -8 45 -8 19 0 76 -7 125
-15 172 -28 187 -19 108 67 -99 105 -315 213 -486 244 -92 16 -88 16 -212 -1z
m-668 -247 c-3 -7 -5 -2 -5 12 0 14 2 19 5 13 2 -7 2 -19 0 -25z"/>
<path d="M1630 6761 c0 -12 5 -21 10 -21 6 0 10 6 10 14 0 8 -4 18 -10 21 -5
3 -10 -3 -10 -14z"/>
<path d="M3970 6359 c-120 -17 -230 -46 -230 -61 0 -5 -9 -8 -20 -8 -11 0 -20
-4 -20 -10 0 -5 -6 -10 -13 -10 -20 0 -77 -60 -77 -81 0 -10 -4 -21 -10 -24
-5 -3 -10 -13 -10 -21 0 -8 4 -13 8 -10 4 2 7 -11 7 -29 -1 -19 2 -32 6 -30 4
3 10 -2 13 -11 9 -22 8 -26 -5 -18 -8 5 -10 -1 -5 -19 3 -14 2 -27 -3 -29 -4
-2 -5 -12 -1 -23 7 -17 10 -15 24 20 62 150 81 186 114 217 65 62 202 121 202
88 0 -6 -8 -14 -17 -17 -29 -11 -126 -73 -157 -102 -53 -48 -141 -210 -124
-227 3 -3 37 4 74 15 65 19 302 46 312 36 3 -3 10 -1 16 4 6 5 34 14 61 19 95
20 139 33 206 63 64 27 73 29 153 23 59 -5 86 -4 86 4 0 6 -24 31 -53 56 -53
45 -143 91 -227 115 -25 7 -54 17 -66 21 -23 9 -183 6 -226 -4 -16 -3 -28 -3
-28 2 0 13 110 32 188 32 129 0 193 -22 366 -124 91 -54 122 -65 113 -42 -4 9
-2 16 4 16 6 0 7 5 4 10 -4 6 -11 8 -16 4 -5 -3 -9 -2 -8 3 4 20 -2 33 -15 33
-8 0 -24 11 -37 25 -13 13 -29 25 -35 25 -6 0 -38 11 -73 25 -126 52 -305 68
-481 44z m233 -138 c10 -2 9 -31 -2 -31 -21 0 -62 21 -57 29 5 7 25 8 59 2z
m-243 -50 c0 -31 38 -111 56 -118 24 -9 15 -22 -18 -27 -61 -10 -248 -14 -253
-5 -9 13 80 123 122 151 80 54 93 53 93 -1z m161 24 c0 -13 -41 -19 -41 -7 0
11 20 22 33 18 5 -1 8 -6 8 -11z m212 -14 c34 -19 31 -30 -19 -58 -56 -33 -61
-30 -60 31 1 53 2 55 26 49 14 -3 37 -13 53 -22z m-313 9 c0 -5 -4 -10 -10
-10 -5 0 -10 5 -10 10 0 6 5 10 10 10 6 0 10 -4 10 -10z m190 -31 c0 -15 -33
-69 -42 -69 -8 0 -3 22 15 58 11 23 27 30 27 11z"/>
<path d="M2485 6023 c-53 -11 -135 -38 -176 -59 -61 -31 -133 -112 -154 -174
-26 -79 -11 -82 28 -5 58 115 121 162 269 200 52 14 76 15 115 7 l48 -10 -77
-1 c-42 0 -79 -5 -82 -10 -3 -5 -21 -12 -39 -15 -37 -7 -135 -75 -183 -127
-44 -49 -72 -99 -76 -139 -3 -30 0 -35 17 -32 10 2 24 11 30 19 11 14 12 14
18 0 5 -14 23 -14 82 3 23 7 84 -13 88 -29 4 -14 5 -14 6 2 1 12 9 17 29 17
15 0 34 5 42 10 11 7 6 9 -18 6 -18 -2 -59 2 -90 8 -54 10 -57 13 -60 43 -2
18 3 43 10 57 15 28 85 86 104 86 20 0 26 -17 14 -40 -13 -25 6 -71 48 -116
29 -31 31 -31 83 -22 29 5 65 16 79 23 44 23 159 47 206 43 48 -3 50 -2 30 27
-7 11 -23 38 -35 60 l-22 40 29 -34 c24 -28 33 -33 55 -27 38 9 34 40 -9 73
-20 15 -51 40 -68 55 -56 47 -130 68 -231 67 -49 -1 -99 -3 -110 -6z m195 -53
c18 -12 2 -12 -25 0 -13 6 -15 9 -5 9 8 0 22 -4 30 -9z m113 -119 c34 -31 34
-39 2 -51 -75 -28 -75 -28 -75 39 0 60 0 61 23 49 12 -7 34 -24 50 -37z m-208
4 c0 -5 -10 -11 -22 -13 -16 -2 -23 2 -23 13 0 11 7 15 23 13 12 -2 22 -7 22
-13z m-85 -60 c0 -8 -4 -15 -10 -15 -5 0 -10 7 -10 15 0 8 5 15 10 15 6 0 10
-7 10 -15z"/>
<path d="M3815 5930 c-3 -6 1 -7 9 -4 18 7 21 14 7 14 -6 0 -13 -4 -16 -10z"/>
<path d="M5811 5840 l-32 -60 33 -28 c57 -47 137 -136 154 -172 15 -30 15 -37
3 -59 -8 -14 -27 -30 -42 -35 -23 -8 -31 -6 -56 18 -15 15 -45 56 -66 92 -21
35 -40 64 -42 64 -12 0 11 -98 32 -139 44 -86 44 -95 -15 -157 -28 -30 -50
-60 -48 -66 6 -17 55 -28 91 -21 28 6 89 59 143 123 11 14 41 39 67 57 68 47
108 140 92 213 -9 41 -68 107 -103 115 -15 3 -60 30 -100 60 -40 30 -74 55
-76 55 -2 0 -18 -27 -35 -60z"/>
<path d="M2956 5702 c-2 -4 -7 -48 -10 -97 -6 -89 -6 -90 9 -50 21 52 32 155
17 155 -6 0 -13 -4 -16 -8z"/>
<path d="M2683 5643 c-13 -2 -28 -12 -35 -21 -7 -9 -29 -19 -48 -20 -36 -4
-51 -17 -44 -37 9 -21 95 9 138 49 39 35 37 38 -11 29z"/>
<path d="M2071 5506 c-1 -37 2 -47 10 -39 8 8 8 22 1 50 l-10 38 -1 -49z"/>
<path d="M2930 5471 c0 -17 2 -31 4 -31 8 0 13 51 5 56 -5 3 -9 -9 -9 -25z"/>
<path d="M2917 5411 c-4 -17 -3 -21 5 -13 5 5 8 16 6 23 -3 8 -7 3 -11 -10z"/>
<path d="M2070 5325 c0 -22 5 -47 10 -55 7 -11 10 -4 10 25 0 22 -5 47 -10 55
-7 11 -10 4 -10 -25z"/>
<path d="M3718 4983 c-7 -16 -17 -26 -22 -25 -5 2 -12 -1 -16 -7 -3 -6 -16
-13 -28 -16 -12 -2 -28 -7 -35 -12 -16 -10 -68 -4 -84 9 -7 6 -13 8 -13 5 0
-3 -20 3 -44 14 -65 28 -137 40 -179 28 -41 -11 -85 -59 -94 -101 -11 -56 -50
-61 -142 -17 -36 18 -86 34 -109 37 -38 4 -47 1 -68 -21 -13 -14 -24 -33 -24
-42 0 -8 -4 -15 -9 -15 -5 0 -16 -3 -24 -6 -24 -9 -75 49 -82 93 -4 21 -10 49
-15 63 -7 22 -9 19 -9 -17 -1 -46 12 -89 34 -113 8 -8 26 -27 40 -42 36 -39
71 -54 140 -62 33 -4 71 -10 84 -13 20 -5 23 -3 17 12 -9 25 11 45 47 45 l30
0 -22 -24 c-13 -14 -21 -28 -18 -33 3 -5 -7 -21 -23 -36 -16 -15 -31 -41 -35
-57 -4 -17 -11 -30 -17 -30 -6 0 -8 7 -4 15 3 8 3 22 0 30 -9 21 -34 0 -34
-29 -1 -23 -26 -63 -35 -54 -3 3 -1 18 5 33 6 15 9 30 7 32 -8 7 -135 -123
-142 -146 -3 -11 -10 -19 -15 -16 -5 3 -32 -11 -59 -31 -58 -43 -102 -130
-122 -236 -11 -63 -11 -65 21 -126 17 -34 36 -62 40 -62 5 0 15 -3 24 -6 9 -3
16 -1 16 4 0 6 5 23 11 39 7 15 13 43 16 60 9 78 63 155 131 188 29 14 55 31
58 39 3 8 29 26 59 40 29 13 56 30 60 35 3 6 14 11 24 11 10 0 26 9 36 20 10
11 22 17 27 14 6 -4 37 -8 70 -11 44 -3 69 1 96 15 20 10 56 28 80 40 24 11
50 18 58 15 9 -3 14 1 14 12 0 16 2 17 18 3 9 -8 38 -16 65 -17 37 -2 47 1 47
13 0 9 5 16 10 16 6 0 10 -6 10 -13 0 -7 9 -13 20 -14 11 -1 20 4 20 12 0 8 4
16 9 19 10 7 77 -19 85 -32 10 -17 153 -19 169 -3 8 8 16 6 28 -5 22 -20 99
-30 109 -13 5 7 13 8 21 3 17 -10 79 -12 73 -2 -8 13 15 18 28 6 7 -7 29 -22
48 -32 18 -11 55 -41 81 -66 55 -54 72 -63 88 -47 9 9 13 6 18 -11 3 -12 19
-28 37 -36 64 -28 65 -28 77 16 22 82 -16 203 -82 263 -38 34 -68 47 -53 23 5
-8 0 -9 -17 -4 -13 4 -32 8 -41 7 -10 0 -20 4 -23 10 -4 5 -17 9 -29 9 -13 0
-29 7 -36 15 -14 17 -45 21 -35 5 3 -5 1 -10 -4 -10 -6 0 -11 8 -11 18 0 13
-2 14 -9 4 -8 -14 -55 -8 -78 10 -7 6 -21 7 -30 3 -10 -5 -26 -7 -35 -6 -22 3
-23 -7 -1 -31 15 -17 15 -18 -8 -18 -37 0 -90 18 -103 34 -6 8 -47 24 -91 35
-44 11 -90 23 -103 27 -13 3 -22 3 -21 -2 4 -24 -3 -23 -25 3 -13 15 -28 25
-32 21 -4 -5 1 -18 12 -30 19 -21 19 -21 -4 -15 -18 4 -22 2 -18 -9 3 -8 1
-14 -5 -14 -5 0 -12 8 -16 18 -3 9 -13 25 -21 35 -19 22 -62 23 -62 1 0 -8 -5
-12 -10 -9 -6 4 -17 2 -24 -4 -11 -9 -21 -2 -47 31 -18 24 -39 49 -48 56 -18
14 -24 69 -9 79 6 3 25 7 44 8 24 1 34 -3 37 -17 4 -15 15 -18 71 -18 79 0
119 15 175 65 30 27 41 45 41 66 0 37 -15 37 -32 2z m-398 -143 c0 -5 8 -11
18 -14 13 -5 17 -18 19 -61 2 -48 0 -55 -18 -55 -13 0 -19 -7 -19 -21 0 -11
-4 -17 -10 -14 -5 3 -10 14 -10 24 0 15 -8 17 -57 13 -58 -4 -58 -4 -70 29
-11 28 -10 35 5 52 19 22 60 41 80 38 7 -1 15 5 18 12 5 15 44 12 44 -3z m437
-167 c-7 -6 -46 10 -41 18 3 5 14 3 24 -3 11 -7 18 -13 17 -15z m308 -33 c3
-6 -1 -7 -9 -4 -18 7 -21 14 -7 14 6 0 13 -4 16 -10z m-55 -141 c0 -5 -7 -9
-15 -9 -15 0 -20 12 -9 23 8 8 24 -1 24 -14z m240 -19 c0 -5 -2 -10 -4 -10 -3
0 -8 5 -11 10 -3 6 -1 10 4 10 6 0 11 -4 11 -10z m-1280 -84 c0 -11 -19 -15
-25 -6 -3 5 1 10 9 10 9 0 16 -2 16 -4z m-100 -61 c-7 -9 -15 -13 -18 -10 -3
2 1 11 8 20 7 9 15 13 18 10 3 -2 -1 -11 -8 -20z"/>
<path d="M3405 4451 c-22 -4 -62 -18 -90 -31 -27 -12 -79 -26 -115 -30 -71 -9
-100 -17 -100 -31 0 -8 15 -13 33 -10 4 1 16 -3 27 -9 14 -7 22 -6 33 5 13 12
16 12 21 -7 3 -12 0 -28 -6 -35 -8 -10 -7 -13 5 -13 16 0 31 17 32 35 0 10 8
15 26 15 5 0 8 -4 5 -9 -7 -10 20 -9 30 2 4 4 14 1 22 -5 8 -7 24 -17 36 -23
11 -6 20 -19 18 -28 -2 -12 4 -17 23 -17 30 0 32 13 6 39 -19 19 -19 19 5 24
13 2 24 -1 25 -7 0 -6 7 7 15 29 19 51 32 64 44 45 6 -9 5 -20 -3 -29 -6 -7
-12 -19 -13 -25 0 -6 -2 -19 -2 -28 -1 -10 -9 -18 -17 -18 -17 0 -20 -16 -4
-25 15 -10 49 25 49 51 0 16 7 24 23 26 14 2 23 11 25 26 3 22 42 33 42 12 0
-5 -4 -10 -10 -10 -5 0 -10 -4 -10 -9 0 -4 39 -7 86 -5 48 2 91 1 96 -2 5 -3
2 -14 -8 -25 -12 -14 -13 -19 -4 -19 54 0 -135 -42 -197 -44 -31 -1 -48 -15
-20 -17 6 0 1 -5 -12 -10 -14 -5 -31 -7 -39 -4 -7 3 -20 -2 -28 -10 -25 -24
-61 -19 -142 18 -16 8 -26 7 -34 -1 -15 -15 -32 -16 -23 -2 9 15 -8 12 -31 -5
-19 -14 -19 -14 3 -15 12 0 25 -4 28 -10 4 -6 -6 -10 -24 -10 -20 0 -31 6 -34
18 -3 11 -5 8 -6 -9 -1 -30 -27 -39 -107 -39 -24 0 -44 -4 -44 -9 0 -13 -46
-22 -75 -15 -14 3 -25 12 -25 19 0 8 -4 16 -9 19 -19 12 -151 -85 -151 -109 0
-19 13 -25 85 -40 34 -8 81 -23 104 -34 22 -12 47 -21 56 -21 25 0 11 43 -18
58 -15 7 -27 17 -27 21 0 19 73 40 147 42 49 1 84 6 94 15 16 15 131 33 239
39 36 2 79 7 95 13 17 5 44 7 61 5 18 -3 35 0 38 6 4 6 16 11 26 11 11 0 27 9
37 19 10 11 30 22 46 26 15 4 27 12 27 17 0 5 15 8 34 5 19 -3 38 -1 43 3 4 4
39 10 77 13 l69 7 -33 -30 c-27 -24 -32 -34 -28 -64 4 -40 -8 -48 -22 -13 -5
12 -9 16 -9 10 -1 -9 -8 -10 -25 -3 -26 9 -48 -4 -40 -25 3 -6 -2 -18 -11 -25
-8 -7 -15 -21 -15 -31 0 -11 -4 -19 -10 -19 -5 0 -13 0 -17 0 -4 0 -8 8 -8 17
0 10 -8 19 -17 21 -11 2 -18 -3 -18 -12 0 -9 -7 -16 -15 -16 -8 0 -12 -6 -9
-14 4 -11 -5 -14 -40 -14 -32 1 -52 -5 -67 -18 -16 -14 -22 -16 -28 -5 -5 7
-10 9 -12 3 -2 -5 -24 -12 -48 -16 -24 -3 -49 -10 -55 -15 -6 -5 -29 -8 -50
-6 -22 2 -48 -1 -58 -6 -13 -7 -23 -7 -32 1 -10 7 -22 7 -40 0 -15 -5 -47 -8
-72 -5 -35 5 -44 3 -44 -10 0 -8 -5 -15 -11 -15 -6 0 -9 9 -6 19 5 22 -15 19
-45 -7 -16 -13 -20 -13 -35 0 -28 23 -53 30 -46 12 12 -32 162 -84 243 -84
123 1 391 68 530 132 35 17 101 58 145 92 44 34 89 68 101 76 12 8 49 36 84
62 43 32 77 49 107 54 50 7 51 19 4 51 -28 19 -46 22 -121 22 -93 0 -102 1
-270 32 -113 22 -395 34 -465 20z m-11 -116 c-33 -25 -50 -18 -24 10 16 17 27
22 34 15 7 -7 4 -15 -10 -25z m-69 -115 c3 -5 -3 -10 -14 -10 -12 0 -21 5 -21
10 0 6 6 10 14 10 8 0 18 -4 21 -10z m605 -75 c0 -6 -11 -12 -25 -13 -24 -2
-32 7 -19 21 10 9 44 4 44 -8z m-710 -175 c0 -5 -4 -10 -10 -10 -5 0 -10 5
-10 10 0 6 5 10 10 10 6 0 10 -4 10 -10z"/>
<path d="M5513 4344 c-6 -13 -7 -24 -3 -24 9 0 25 39 18 45 -2 2 -8 -7 -15
-21z"/>
<path d="M3301 4274 c0 -11 3 -14 6 -6 3 7 2 16 -1 19 -3 4 -6 -2 -5 -13z"/>
<path d="M3488 4243 c7 -3 16 -2 19 1 4 3 -2 6 -13 5 -11 0 -14 -3 -6 -6z"/>
<path d="M3828 3884 c-3 -3 -26 -7 -50 -10 -50 -5 -82 -10 -158 -24 -30 -6
-74 -11 -98 -11 -23 -1 -45 -5 -48 -10 -3 -5 -21 -9 -41 -9 -20 0 -60 -8 -90
-17 -61 -19 -71 -45 -24 -61 17 -6 37 -24 45 -41 11 -20 21 -28 31 -25 11 5
13 2 9 -10 -10 -26 18 -29 124 -12 133 21 175 37 182 67 3 13 14 26 24 27 26
5 60 38 52 51 -4 5 7 18 24 27 16 10 32 25 35 33 6 15 -7 35 -17 25z"/>
<path d="M4311 3414 c0 -11 3 -14 6 -6 3 7 2 16 -1 19 -3 4 -6 -2 -5 -13z"/>
<path d="M4207 3368 c-2 -7 0 -28 4 -47 4 -18 5 -40 2 -47 -8 -22 11 -16 35 9
25 26 28 37 9 37 -7 0 -18 9 -25 20 -7 12 -8 20 -2 20 5 0 10 5 10 10 0 14
-28 12 -33 -2z"/>
<path d="M4275 3364 c-27 -20 -12 -28 20 -11 20 10 23 15 13 19 -7 3 -22 0
-33 -8z"/>
<path d="M4120 3320 c0 -5 5 -10 10 -10 6 0 10 5 10 10 0 6 -4 10 -10 10 -5 0
-10 -4 -10 -10z"/>
<path d="M3090 3135 c19 -22 36 -42 38 -44 1 -2 4 -2 7 0 2 3 -14 23 -38 45
l-42 39 35 -40z"/>
<path d="M3600 3141 c0 -9 41 -23 48 -16 2 2 1 8 -3 14 -8 13 -45 15 -45 2z"/>
<path d="M3230 3090 c0 -5 5 -10 10 -10 6 0 10 5 10 10 0 6 -4 10 -10 10 -5 0
-10 -4 -10 -10z"/>
<path d="M3194 3056 c22 -20 44 -36 50 -36 13 0 -22 32 -59 54 -25 15 -24 12
9 -18z"/>
<path d="M4298 2963 c7 -3 16 -2 19 1 4 3 -2 6 -13 5 -11 0 -14 -3 -6 -6z"/>
<path d="M4233 2948 c-23 -30 -24 -37 -2 -33 29 6 43 20 35 34 -9 14 -21 14
-33 -1z"/>
<path d="M4285 2830 c-3 -5 3 -10 14 -10 12 0 21 5 21 10 0 6 -6 10 -14 10 -8
0 -18 -4 -21 -10z"/>
<path d="M4126 2794 c-21 -20 -20 -24 9 -56 19 -21 25 -38 25 -73 0 -32 4 -45
12 -43 8 3 11 21 9 50 -2 38 1 47 16 50 15 4 14 7 -9 18 -23 11 -42 41 -39 63
2 11 -6 8 -23 -9z"/>
<path d="M4120 2686 c0 -19 -3 -43 -7 -53 -6 -16 -5 -16 10 -4 19 15 24 91 7
91 -5 0 -10 -15 -10 -34z"/>
<path d="M4240 2690 c0 -5 7 -10 16 -10 8 0 12 5 9 10 -3 6 -10 10 -16 10 -5
0 -9 -4 -9 -10z"/>
<path d="M4568 2663 c7 -3 16 -2 19 1 4 3 -2 6 -13 5 -11 0 -14 -3 -6 -6z"/>
<path d="M4497 2620 c-21 -24 -21 -30 -4 -30 14 0 47 31 47 43 0 14 -26 6 -43
-13z"/>
<path d="M4865 2450 c-3 -5 -1 -10 4 -10 6 0 11 5 11 10 0 6 -2 10 -4 10 -3 0
-8 -4 -11 -10z"/>
<path d="M3313 2175 c-33 -50 -28 -65 7 -27 28 31 39 62 23 62 -5 0 -18 -16
-30 -35z"/>
<path d="M1647 7443 c-10 -9 -9 -23 2 -23 5 0 11 7 15 15 5 15 -5 20 -17 8z"/>
<path d="M5401 2734 c0 -11 3 -14 6 -6 3 7 2 16 -1 19 -3 4 -6 -2 -5 -13z"/>
<path d="M6720 2680 c0 -5 5 -10 10 -10 6 0 10 5 10 10 0 6 -4 10 -10 10 -5 0
-10 -4 -10 -10z"/>
<path d="M5332 2658 c2 -12 10 -23 18 -25 13 -4 13 -3 0 7 -11 9 -12 13 -2 17
17 7 15 23 -4 23 -10 0 -14 -7 -12 -22z"/>
<path d="M5388 2479 c-17 -18 -17 -19 3 -19 11 0 18 -4 15 -8 -2 -4 3 -8 13
-8 10 0 18 5 18 11 0 5 4 17 7 25 10 23 -35 22 -56 -1z"/>
<path d="M6750 2411 c0 -11 39 -25 47 -18 3 3 2 10 -2 16 -8 13 -45 15 -45 2z"/>
<path d="M7095 2240 c-3 -6 1 -7 9 -4 18 7 21 14 7 14 -6 0 -13 -4 -16 -10z"/>
<path d="M4768 1843 c6 -2 18 -2 25 0 6 3 1 5 -13 5 -14 0 -19 -2 -12 -5z"/>
<path d="M8024 1185 c-4 -8 -18 -15 -33 -16 -15 0 -20 -3 -11 -6 8 -3 17 -10
20 -14 7 -9 18 -2 44 29 17 20 17 22 2 22 -9 0 -19 -7 -22 -15z"/>
<path d="M7926 1116 c-40 -41 -46 -66 -16 -66 26 0 78 76 62 92 -8 8 -21 1
-46 -26z"/>
<path d="M7840 1046 c0 -2 7 -6 15 -10 8 -3 15 -1 15 4 0 6 -7 10 -15 10 -8 0
-15 -2 -15 -4z"/>
<path d="M8669 853 c-1 -57 -5 -93 -17 -148 -6 -27 -7 -54 -4 -60 4 -5 7 -14
7 -20 0 -10 8 -15 26 -15 13 0 40 65 41 102 1 16 5 31 10 34 14 9 9 44 -14 95
-28 59 -48 64 -49 12z"/>
<path d="M8560 679 c0 -11 4 -18 10 -14 5 3 7 12 3 20 -7 21 -13 19 -13 -6z"/>
<path d="M6391 2144 c0 -11 3 -14 6 -6 3 7 2 16 -1 19 -3 4 -6 -2 -5 -13z"/>
<path d="M6390 1950 c0 -6 -10 -15 -22 -20 -22 -8 -22 -9 5 -9 21 -1 27 4 27
19 0 11 -2 20 -5 20 -3 0 -5 -5 -5 -10z"/>
<path d="M6480 1951 c0 -11 26 -22 34 -14 12 12 5 23 -14 23 -11 0 -20 -4 -20
-9z"/>
<path d="M6488 1873 c6 -2 18 -2 25 0 6 3 1 5 -13 5 -14 0 -19 -2 -12 -5z"/>
<path d="M6080 1560 c0 -5 5 -10 10 -10 6 0 10 5 10 10 0 6 -4 10 -10 10 -5 0
-10 -4 -10 -10z"/>
<path d="M6065 1520 c3 -5 16 -10 28 -9 21 0 21 1 2 9 -28 12 -37 12 -30 0z"/>
<path d="M6785 810 c-3 -5 -1 -10 4 -10 6 0 11 5 11 10 0 6 -2 10 -4 10 -3 0
-8 -4 -11 -10z"/>
</g>
</svg>
