<?xml version="1.0" standalone="yes"?>
<svg xmlns="http://www.w3.org/2000/svg" width="1000" height="1000">
<path style="fill:#000000; stroke:none;" d="M1 1L1 999L999 999L999 1L1 1z"/>
<path style="fill:#ffffff; stroke:none;" d="M594 176C603.826 198.921 621.391 218.414 629.211 242C637.374 266.616 639.951 297.079 638.625 323C638.28 329.745 634.586 335.389 634.09 342C632.969 356.959 634.726 372.184 633.892 387C632.894 404.745 624.284 423.879 619.756 441C617.875 448.112 618.654 456.073 616.299 462.996C613.333 471.712 604.102 485.312 607.861 495C610.437 501.637 617.211 507.735 621.845 513C630.577 522.921 638.721 533.606 648.004 543C659.661 554.797 672.742 564.913 687 573.396C697.623 579.715 709.138 584.556 721 587.999C741.687 594.004 764.559 595.534 785 587.536C803.499 580.298 818.204 565.796 832 552C850.79 533.21 868.488 513.83 885.003 493C914.634 455.628 946.84 407.664 946.999 358C947.101 326.419 931.65 280.402 900 267.927C874.889 258.029 842.41 262 816 262C794.019 262 768.834 261.378 749 250.691C742.321 247.092 732.954 241.998 731.098 234C726.526 214.293 755.937 194.129 768 182.911C791.191 161.344 821.764 125.97 811.229 91C807.528 78.7145 798.964 67.875 790 59.0038C780.64 49.7411 769.582 42.3752 757 38.3441C721.643 27.0158 669.231 54.7378 674.184 96C676.387 114.35 697.736 135.192 687.457 153.961C682.811 162.444 672.738 166.27 664 168.974C642.268 175.7 616.571 175.985 594 176M357 67L332 73.7778L321 75C316.656 68.6259 311.232 72.7787 305 73.6991C288.407 76.1499 275.736 86.781 260 92.1459C242.587 98.0823 226.928 81.9351 208 87.3788C197.528 90.3908 192.782 98.2162 184.981 104.61C175.981 111.989 164.321 115.539 157.054 125.039C146.729 138.536 142.975 156.307 132 169L132 166L131 166C126.006 173.419 121.026 180.886 121 190L135 197L135 182L157 226L158 226C153.035 208.34 143 189.305 143 171L145 171C145.001 182.497 148.514 193.681 153.605 204C155.749 208.346 157.723 213.081 163 213L157 163L166 174C166.004 167.37 166.431 160.183 171 155L171 165L170 165L168 163C175.729 178.84 184.191 199.149 202 206L196 196L188 190L193 193L192 189C195.121 186.116 191.773 180.55 190.244 177.17C186.317 168.492 180.099 157.88 182 148C176.56 146.183 174.73 150.352 173 155L172 155C172.209 149.548 174.651 146.157 179 143C179.17 132.935 187.025 125.34 196 122C193.416 129.266 192.299 138.056 186 143L182 140L185 142L191 170L198 164C194.413 160.541 194.981 158.536 196 154L199 162L201 162L202 157C204.531 159.791 204.217 161.562 203 165L207 168L208 168L209 163C216.32 159.725 220.007 161.119 227 165L227 161L237 160L236 162L240 162C241.03 157.436 245.209 158.462 249 158L249 153L254 154L257 142C268.576 145.414 294.578 140.466 304 133L305 133L308 135L308 134L306 133L313 131L313 134L314 134L334 127L334 126L331 126L331 125C337.905 123.442 340.018 124.753 346 128L344 123C363.73 128.832 384.334 117.064 403 122L403 121L401 119L402 118L404 118L414 119L412 122L463 127L463 125L457 124L462 122L462 121L455 117L497 133L485 124L485 123L511 137L503 125L506 125C502.024 111.601 474.815 112.352 466 102C489.71 103.005 505.12 122.786 529 123L529 122L510 110L512 114L499 106L509 106L509 105L490 95L490 94L496 94L496 93L486 93L487 89C452.72 74.4514 413.999 74.4263 378 67L378 66L383 66L383 64C376.602 63.5702 359.521 58.3803 357 67z"/>
<path style="fill:#000000; stroke:none;" d="M469 97L469 98L500 104C495.2 96.6783 476.946 95.4495 469 97M249 103L250 104L249 103M264 103L263 110L266 103L264 103M217 106L218 107L217 106M225 106L224 110L227 106L225 106M223 111L219 116L223 111M262 112L261 115L262 112M195 117L195 118L200 116L195 117M259 116L259 120L261 120L261 116L259 116M395 117L395 118L398 118L395 117M414 118L415 119L414 118M376 121L376 122L383 122L376 121M442 121L442 122L446 122L442 121M326 125L326 126L329 126L326 125M212 126L210 148C215.401 144.596 214.744 131.2 212 126z"/>
<path style="fill:#ffffff; stroke:none;" d="M352 128L353 129L352 128z"/>
<path style="fill:#000000; stroke:none;" d="M226.333 129.667L226.667 130.333L226.333 129.667z"/>
<path style="fill:#ffffff; stroke:none;" d="M426 130L439 135L426 130M440 135L441 136L440 135M410 138L410 139L444 144C436.335 137.875 419.321 135.245 410 138M445 137L446 138L445 137z"/>
<path style="fill:#000000; stroke:none;" d="M171 138L167 144L173 138L171 138M198 139L196 152C200.668 149.303 202.092 142.658 198 139z"/>
<path style="fill:#ffffff; stroke:none;" d="M374 144L374 145C393.818 144.987 410.621 141.924 430 149L427 150L427 151L445 155L445 154L441 153L442 150C421.143 141.954 395.608 134.437 374 144M449 139L450 140L449 139z"/>
<path style="fill:#000000; stroke:none;" d="M268 140L268 141L271 141L268 140z"/>
<path style="fill:#ffffff; stroke:none;" d="M360 140L360 142L373 141L360 140M445 144L446 145L445 144M459 146L476 155L476 154L459 146M396 149L396 150L432 157L431 160L459 168L459 169L418 166C423.467 173.037 445.46 170.692 454 172.518C477.209 177.478 495.267 195.614 517 204C513.336 197.207 504.474 195.003 498 191.525C484.632 184.341 473.926 174.073 459 170L459 169L469 171C461.657 161.846 441.488 155.916 430 155L431 153L422 152C421.124 145.03 400.987 148.073 396 149z"/>
<path style="fill:#000000; stroke:none;" d="M187 149L186 151L188 151L187 149M436 150L439 152L436 150z"/>
<path style="fill:#ffffff; stroke:none;" d="M485 155C487.174 158.389 490.179 158.414 494 158L494 157L485 155M445 156L445 157L450 158L450 157L445 156M520 156L520 157L540 163.296L568 170.515L592 184C583.179 165.473 558.553 162.811 541 159.678C533.764 158.387 527.491 156.021 520 156z"/>
<path style="fill:#000000; stroke:none;" d="M209 157L209 159L211 159L211 157L209 157z"/>
<path style="fill:#ffffff; stroke:none;" d="M422 157L423 158L422 157z"/>
<path style="fill:#000000; stroke:none;" d="M156 160L157 163L156 160z"/>
<path style="fill:#ffffff; stroke:none;" d="M840 160.439C817.813 163.904 795.361 179.032 786.338 200C772.672 231.759 805.966 244.617 832 240.561C851.429 237.534 875.646 230.891 884.471 211C896.43 184.045 866.075 156.366 840 160.439M214 161L212 166L217 165L217 161L214 161M517 163L517 164L537 166C532.49 161.394 523 161.576 517 163M201 164L199 165L199 166L201 164z"/>
<path style="fill:#000000; stroke:none;" d="M130 171L127 184L128 184L130 171z"/>
<path style="fill:#ffffff; stroke:none;" d="M549 173L555 177L555 178L543 178L543 179L585 187C578.998 175.528 561.107 169.262 549 173M449 174L450 175L449 174M452 175L459 179L452 175M469.667 183.333L470.333 183.667L469.667 183.333M321 187C339.724 187 362.696 191.835 379 201.475C390.321 208.169 400.404 219.592 412 225C406.909 217.308 398.978 208.866 390 206L391 203L386 202L386 201L388 200C374.467 192.205 355.077 190.296 340 186C333.864 184.252 325.959 181.937 321 187M474.667 185.333L475.333 185.667L474.667 185.333M477 187L477 188L481 189L481 188L477 187M580 188L581 189L580 188M305 193L311 196L324 192C319.627 189.751 306.696 187.029 305 193M583 190L597 202C594.71 195.396 589.299 192.29 583 190M569 191C572.7 196.952 589.078 205.462 596 205C588.329 198.176 578.781 193.831 569 191M341 194L342 195L341 194z"/>
<path style="fill:#000000; stroke:none;" d="M195.333 197.667L195.667 198.333L195.333 197.667z"/>
<path style="fill:#ffffff; stroke:none;" d="M135 198L137 201L135 198M307 208L325 203.301L344 204L344 203L341 202L344 200C332.412 196.479 314.316 196.64 307 208M368.667 201.333L369.333 201.667L368.667 201.333z"/>
<path style="fill:#000000; stroke:none;" d="M388 203L389 204L388 203z"/>
<path style="fill:#ffffff; stroke:none;" d="M137 204L141 214L142 214L137 204M580 204L580 205L589 210L589 209L580 204M355 214L355 215L360 216L360 215L355 214M278 223C285.759 223.832 297.293 221.537 303 216C295.786 215.357 283.49 218.16 278 223M440 216C443.296 221.498 449.963 225.998 456 228C452.162 222.597 446.505 217.687 440 216M158 217C158.408 223.146 161.052 229.14 168 228C166.798 222.046 162.961 219.86 158 217M412 221L413 228L414 228L412 221M273 224L273 225L277 225L273 224M416 224C416.344 229.121 418.061 232.239 423 234L422 236L448 263C441.674 247.81 431.618 230.801 416 224M356 225L356 226C367.065 230.905 385.83 240.636 398 238C388.817 230.773 367.731 225.505 356 225M150 226L151 227L150 226M544 227L544 228L585 235C575.747 227.533 555.528 227.095 544 227M151.333 229.667L151.667 230.333L151.333 229.667M146.333 230.667L146.667 231.333L146.333 230.667M180.667 234.333L181.333 234.667L180.667 234.333M162 237C166.472 242.068 172.741 241 179 241C174.019 236.874 168.262 235.153 162 237M182 236L182 237L199 239L182 236M149.333 238.667L149.667 239.333L149.333 238.667M383 242L383 245L392 245L383 242M166 250L166 251L169 251L166 250M208 341L201 341C200.998 362.37 200.171 385.622 190 405L190 406L190 416L191 416L198 389L199 389L197 400C201.562 397.468 200.768 392.396 202.968 388C206.795 380.351 216.52 374.814 225 376C239.386 365.099 266.833 374.331 267 393L263 394L264 397C246.289 400.654 226.31 399.268 210 407.785C205.482 410.144 196.823 413.654 195.473 419.09C192.553 430.846 201.895 444.274 202 456C192.207 444.733 183.115 424.721 180.245 410C178.774 402.453 179.131 394.46 177 387L176 387L175 395L174 395L174 382C170.911 365.362 163.453 347.012 174 333L165 343L164 343C164.082 339.867 165.667 337.444 162 337L173 327C167.703 327.414 164.923 328.06 161 324L165 322C159.114 314.003 150.08 307.08 143 300C125.081 282.081 101.941 250 73 254.21C54.8704 256.847 38.9775 279.278 32.8117 295C13.7001 343.733 41.575 400.047 78 432.829C112.996 464.326 156.339 469.475 201 473C201.082 474.51 201.368 480.754 203 477L204 477C204.658 493.831 180.764 493.694 169 500.464C147.927 512.591 132.295 531.715 132.004 557C131.539 597.401 174.65 613.047 201 634.468C221.006 650.731 231.093 676.19 235.576 701C245.565 756.286 171.03 768.104 172.054 821C172.692 853.984 201.604 855.144 226 862C223.088 864.958 217.685 866.936 216.175 871.001C213.852 877.256 225.323 886.02 230 888L244 852L241 848L258.999 845.44L277 838C271.326 845.564 257.888 844.72 251.444 852.225C246.009 858.555 250.31 875.548 248.252 884C247.436 887.35 244.768 892.331 245.788 895.786C246.723 898.954 251.721 900.63 254.61 899.381C259.393 897.312 261.833 887.362 263.945 883C271.568 867.259 279.1 848.777 290.428 835.3C296.035 828.63 303.448 823.383 312 827L312 828C307.282 832.862 304.985 841.008 301.694 847C292.132 864.414 281.701 884.037 279 904C282.599 904 287.626 903.143 290.856 905.028C296.383 908.254 297.653 919.048 303.004 923.816C319.826 938.805 336.665 931.444 352 919C350.903 904.809 350.633 886.93 338 878L338 881C332.032 875.737 335.386 870.726 334.569 864C333.903 858.514 328.68 851.628 324 849C323.855 861.375 308.078 873.529 297 877C303.471 866.427 306.775 854.586 312.88 844C315.362 839.695 321.163 836.523 322.566 831.896C329.772 808.136 329.672 782.609 338.536 759C341.755 750.427 343.342 740.915 351 735C355.44 754.19 362.842 772.656 373.836 789C377.719 794.772 381.765 802.553 388 806L392 803L392 804L389 805L391 807L390 810L393 814C395.355 811.189 395.324 809.371 394 806L395 805L403 808L403 810L399 810L399 813L404 812L405 819C409.59 817.831 411.912 820.89 416.089 820.556C419.193 820.309 421.307 817.536 424.285 817.041C429.215 816.222 432.846 820.046 434 813C438.847 811.425 438.202 807.417 439 803L430 798L430 797L430 796L439 784L435 784L435 783L455.259 769.461L469 767L470 767L471 767L473 769L471 763L477 765C501.116 727.368 548.404 703.233 563.91 660C570.623 641.283 563.294 621.467 561.705 603C561.099 595.949 563.988 589.092 564.075 582C564.275 565.705 565.197 549.371 564.996 533C564.895 524.748 562.093 517.013 553 516C553 539.798 551.051 564.833 541.573 587C528.955 616.509 501.992 641.004 478.665 662.039C472.165 667.901 467.704 677.316 461.481 682.585C458.011 685.524 452.826 687.263 449 690L450 692L407 711L408 715L404 715L404 714L406 712L402 713L404 720L397 722L397 715C369.82 717.37 341.923 720.306 319 703L319 702L321 698L326 701L329 700L329 698L321 691L333 694L334 697L349 699L350 695L356 696L356 695L352 692C358.67 693.802 370.063 697.615 375 690L376 690L377 693L378 693L379 690L390 692L391 689L403 690L404 687L408 690L411 688L411 682L417 686C420.048 681.333 420.653 678.534 420 673L416 671L420 670C423.577 677.43 426.779 677.439 432 672L431 664C433.626 668.564 434.674 672.147 440 674L434 662L438 665L437 661L438 661L442 672C458.387 663.236 474.856 647.678 487.254 633.754C491.55 628.929 497.855 623.039 500 617C511.872 617.19 517.025 592.932 529 590L531 595L532 586L535 587L540 577L537 578L539 573L540 573L540 575L541 575L540 569L544 571L548.83 551L553 504L554 504C560.488 518.557 583.317 531.342 593.775 512.999C596.611 508.026 597.116 502.206 599.337 497C609.74 472.62 615.998 447.788 615.998 421C615.998 412.188 614.172 402.091 610.532 394.018C609.545 391.83 604.814 385.74 602.133 389.644C600.636 391.822 602.987 395.135 604.001 397C607.241 402.961 609.379 409.365 610.789 416C614.536 433.623 610.548 453.361 604.656 470C602.106 477.201 598.163 486.579 591 490C598.653 472.051 609.758 457.61 605.112 437C602.475 425.302 599.399 410.528 593.583 400.001C587.389 388.789 579.146 394.909 575.349 404C574.143 406.886 573.594 409.946 573 413L584 406C580.033 414.818 573.798 414.929 567 420.344C555.565 429.454 545.188 442.071 544 457L543 457L542 451L539 452C535.24 433.833 527.48 418.971 520.604 402C506.296 366.684 490.648 324.995 453 308.873C416.244 293.132 377.106 299.14 339 294.899C311.195 291.804 290.15 264.223 265 254.965C255.687 251.537 232.293 251.067 224.129 257.059C217.809 261.697 213.864 271.818 211.345 279C208.266 287.778 205.557 296.857 203.805 306C201.073 320.253 204.179 327.737 208 341M172 296L170 293L180 288L180 287L159 289L167 276L164 276L164 271L172 267C159.346 262.124 149.015 292.816 160.278 297.356C163.43 298.627 168.845 296.809 172 296M553.667 270.333L554.333 270.667L553.667 270.333M557 271L557 272L573 274L557 271z"/>
<path style="fill:#000000; stroke:none;" d="M162 273L161 276L162 273z"/>
<path style="fill:#ffffff; stroke:none;" d="M185 284L186 285L185 284z"/>
<path style="fill:#000000; stroke:none;" d="M169 295L170 296L169 295z"/>
<path style="fill:#ffffff; stroke:none;" d="M573 296L574 297L573 296M161 300L165 309L173 306L173 305L169 306L173 300L161 300M185 309L186 310L185 309M171 313L171 314C175.001 315.834 177.5 315.833 180 312L171 313M164 327L168 324L164 327M489 324L490 325L489 324z"/>
<path style="fill:#000000; stroke:none;" d="M156 325L158 334L159 334L156 325z"/>
<path style="fill:#ffffff; stroke:none;" d="M491 325L494 327L494 326L491 325M495 327L495 328L500 329L500 328L495 327z"/>
<path style="fill:#000000; stroke:none;" d="M161 329L160 333L161 333L161 329z"/>
<path style="fill:#ffffff; stroke:none;" d="M508 331L508 332L513 334L513 333L508 331z"/>
<path style="fill:#000000; stroke:none;" d="M161.333 334.667L161.667 335.333L161.333 334.667z"/>
<path style="fill:#ffffff; stroke:none;" d="M518 336L519 337L518 336z"/>
<path style="fill:#000000; stroke:none;" d="M337 358C328.514 356.739 312.305 373.146 325 377C325.257 382.521 327.213 388.518 334 385.921C354.477 378.087 374.753 365.323 397 363.17C423.635 360.592 447.761 370 474 370C470.767 360.487 461.244 354.835 453 350.012C427.299 334.977 398.058 336.323 370 343.421C360.298 345.875 342.843 349.083 337 358M160 339L160 342L161 342L160 339z"/>
<path style="fill:#ffffff; stroke:none;" d="M335 360L336 361L335 360M181 372L179 381L181 372z"/>
<path style="fill:#000000; stroke:none;" d="M354 418C360.386 404.348 366.964 383.743 386 385L386 386C371.959 391.181 358.378 403.32 357 419L410 409.961L429 403.134L446 403C433.617 385.784 406.63 380.164 387 385C407.752 368.667 433.34 393.095 452 399L453 394C429.01 377.038 403.491 375.604 375 381.174C365.954 382.942 353.284 389.063 351.309 399C350.672 402.208 352.732 404.878 352.958 408C353.231 411.783 352.032 414.502 354 418z"/>
<path style="fill:#ffffff; stroke:none;" d="M178 382L179 383L178 382M184 382L184 385L185 385L184 382M173 383L174 384L173 383M183 386L182 391L183 391L183 386M405 393L405 394L411 396C409.864 392.578 408.43 392.216 405 393M261 393L262 394L261 393M366 413L394 411L386 393C377.087 396.263 368.452 403.546 366 413M391 394L393 397L393 394L391 394M399 397L403 394L399 397M416 394L415 405L426 400L426 398L416 394z"/>
<path style="fill:#000000; stroke:none;" d="M175 395L175 398L176 398L175 395z"/>
<path style="fill:#ffffff; stroke:none;" d="M410 397L407 405C409.654 402.659 411.205 400.518 410 397M186 405L187 406L186 405z"/>
<path style="fill:#000000; stroke:none;" d="M210 441L211 441L211 439L212 439L211 448L218 445L234 449L235 449L242 446L242 445C237.654 444.988 230.827 445.465 227.322 442.4C220.328 436.286 233.058 427.667 238 426C236.982 434.63 240.248 438.166 245 445C257.686 441.717 269.596 436.024 283 437L278 427L279 427C281.12 430.591 283.322 430.575 287 429C274.868 398.342 211.512 407.999 210 441z"/>
<path style="fill:#ffffff; stroke:none;" d="M184 415L189 424L184 415M214 436L215 436C225.317 422.46 238.142 416.002 255 416C240.298 409.831 218.209 421.422 214 436M261.667 417.333L262.333 417.667L261.667 417.333z"/>
<path style="fill:#000000; stroke:none;" d="M379.333 419.667L379.667 420.333L379.333 419.667M372 422L375 421L372 422z"/>
<path style="fill:#ffffff; stroke:none;" d="M266 424L266 436L276 432L276 431L266 424z"/>
<path style="fill:#000000; stroke:none;" d="M570 424C568.387 427.067 565.136 431.184 565.531 434.83C566.469 443.506 580.934 447.756 582.777 456.999C584.386 465.07 575.114 464.109 571.468 459.952C568.062 456.07 566.471 450.735 562 448C562.547 454.693 569.675 463.953 568.211 469.999C567.297 473.776 558.122 478.987 561.083 483.258C562.984 486.003 568.539 485.031 570.999 483.825C578.171 480.31 586.941 470.347 592.481 464.535C609.515 446.669 585.183 430.419 570 424z"/>
<path style="fill:#ffffff; stroke:none;" d="M276 425L277 426L276 425M248 427L249 430L254 429L248 427M242 430L243 431L242 430M242 433L245 436L242 433M212 438L213 439L212 438z"/>
<path style="fill:#000000; stroke:none;" d="M290 442L288 461L289 461L290 442M249 455L251 458C257.41 455.963 263.572 454.307 267 448L249 455M203 460L203 467L204 467L203 460M287 463L287 467L288 467L287 463M285 472L286 473L285 472z"/>
<path style="fill:#ffffff; stroke:none;" d="M202 483L203 484L202 483z"/>
<path style="fill:#000000; stroke:none;" d="M364 500L365 501L364 500M365 510C354.537 527.768 339.623 511.709 325 513.2C315.039 514.216 316.691 523.339 309.856 526.932C304.192 529.909 295.707 522.381 290 521.483C282.733 520.34 282.437 526.975 276.871 528.387C269.525 530.252 267.882 517.547 267 513L266 513C266.056 533.333 280.528 535.94 297 539L296 535L304 533L294 551L293 551L292 545L286 554L287 548C274.226 556.998 258.027 571.255 254.669 587C252.887 595.354 254.66 606.488 264 609C265.97 603.528 266.483 597.073 269.188 592C275.06 580.989 292.07 569.562 304.17 566.18C315.752 562.942 326.312 565.156 337 557C340.393 559.607 346.035 560.614 349 557L350 557L351 557C352.572 559.742 354.391 558.841 355 556C364.759 558.69 372.953 563.294 383 559C385.252 563.556 401.951 564.328 403 559C408.204 563.423 421.754 576.694 428 574C430.104 579.017 433.888 580.722 439 582C441.76 570.406 439.401 552.762 426 549L427 551L409 547L408 547L408 544L391 544L393 549L360 539L361 542L360 542L354 538L357 542L352 543C351.28 538.94 345.336 533.765 344 540L330 531C329.934 524.848 331.825 523.184 338 523L338 526C350.088 526 366.173 525.894 367 510L365 510z"/>
<path style="fill:#ffffff; stroke:none;" d="M311 540L323 539L323 543L324 543L328 540L329 530C320.155 523.958 308.519 528.556 311 540M363 541L363 543L365 543L363 541M354 543L355 544L354 543M366.667 543.333L367.333 543.667L366.667 543.333z"/>
<path style="fill:#000000; stroke:none;" d="M386 543L387 544L386 543z"/>
<path style="fill:#ffffff; stroke:none;" d="M396 546L397 547L396 546M389 559L392 561L389 559M414 562L415 563L414 562z"/>
<path style="fill:#000000; stroke:none;" d="M303 573L303 575L310 578L311 578L313 574L314 574L313 581C316.102 580.052 316.866 579.251 317 576L331 580L330 584L336 584L332 579L332 578L337 579L340 570L342 570L341 580L337 581L340 584L340 586C333.863 587.915 324.859 589.768 324 581L314 587L314 588L318 590L313 587L312 587C309.589 594.942 301.193 589.49 297 595C293.366 594.512 288.196 591.533 284.91 591.863C281.319 592.223 269.994 598.92 273.662 603.437C276.597 607.051 292.301 610.519 297 611C296.35 607.002 294.62 605.645 291 604L291 603C310.872 594.902 334.897 595.46 356 591.989C361.559 591.075 365.773 586.956 371.001 585.093C377.604 582.741 385.072 582.534 392 582L392 583C386.868 585.246 385.416 588.525 386 594L380 597L384 591C376.017 592.155 376.43 597.149 371 602L371 598L364 604C358.177 601.678 343.398 605.491 339 610L338 610C334.453 606.735 313.771 607.854 311 612L310 609L298 610L298 611C322.044 624.968 359.935 615.008 381.961 600.407C393.692 592.63 405.324 578.289 420 577C414.858 566.547 400.561 570.899 391 569.41C374.971 566.913 358.302 563.07 342 564.22C329.035 565.134 315.631 569.888 303 573z"/>
<path style="fill:#ffffff; stroke:none;" d="M288 570L288 572L290 570L288 570M348 571L343 576L340 583L345 586L344 583L367 580L368 575L350 575L352 571L348 571M319 573L320 574L319 573M328 578L333 574L328 578M280 575L279 578L280 578L280 575z"/>
<path style="fill:#000000; stroke:none;" d="M300 575L301 576L300 575z"/>
<path style="fill:#ffffff; stroke:none;" d="M340.667 586.333L341.333 586.667L340.667 586.333M322 587L325 589L322 587z"/>
<path style="fill:#000000; stroke:none;" d="M530 589L531 590L530 589z"/>
<path style="fill:#ffffff; stroke:none;" d="M386 594L387 595L386 594M570 610L574 617L570 610M314 611L313 613L314 611M660 706L660 707L664 711C647.638 707.639 627.488 705.149 617.103 691.576C606.231 677.365 600.202 661.086 588.629 647.286C585.21 643.209 582.149 636.741 577 635C571.527 658.873 564.212 676.679 550.135 697.001C542.021 708.714 527.688 720.98 524 735L522 734C518.303 739.657 514.408 750.088 516.583 756.911C517.88 760.979 526.579 769.966 523 773L523 770C520.524 771.309 519.863 772.376 523 773L523 774L516 774C515.538 770.311 511.351 770.4 508 770L509 763L503 767L503 774L500 779C507.171 782.406 516.271 785.324 512 794L516 796L503.403 801.688L498.877 808.596L477 813L477 812L480 812L480 811L463 811L464 813L456 816L460 820L459 824L463 826L461 828L461 829L469 829L469 830L466 831L467 835C473.539 835.712 482.547 843.787 489 846.766C505.945 854.59 527.488 862.373 546 864.999C550.666 865.661 557.339 868.131 561.907 867.452C574.037 865.648 576.484 838.077 580.09 829C588.56 807.682 599.368 786.8 606.482 765C612.555 746.389 616.067 725.825 624 708L625 708C629.615 718.892 627.371 735.908 628.759 748C629.868 757.659 634.485 763.802 645 760L644 757L648 756L654 760L654 756L655 756L658 762L647 763C657.382 770.35 679.905 784.592 693 781C695.21 787.469 706.007 788.707 712 790C721.604 792.072 730.465 796.244 740 798.497C747.271 800.215 754.965 799.441 762 802L745.299 805.318L732 819L733 821C729.017 822.758 725.93 824.383 726 829L721 836L722 836C731.685 824.211 753.755 810.063 769 808L768 803C780.89 803.697 792.528 820.46 800.424 829.59C803.94 833.655 808.002 837.388 808 843L812 848C802.259 840.831 797.09 829.171 785 826C782.52 832.879 776.835 833.046 771.004 836.216C761.978 841.123 751.18 848.8 748 859L744 858L738 868L745 868C749.769 859.118 759.655 856.035 767.714 851.269C771.643 848.946 776.361 845.488 781 847L782 847L784 844L785 844L789 846C784.578 851.416 784.927 858.778 777 860C775.003 875.455 760.875 884.627 752.884 897.289C742.561 913.648 740.214 934.71 732 952C745.152 948.991 756.92 938.23 756.921 924C756.922 918.307 751.953 910.261 755.607 905.133C761.64 896.67 777.538 902.586 786 899C786.608 893.437 792.725 891.582 796.911 888.792C806.823 882.184 816.51 873.666 827 868L828 869C821.763 884.071 814.779 904.347 803 916C806.557 923.626 814.365 928.716 819.812 935C824.426 940.323 826.699 946.752 831.925 951.7C851.507 970.237 875.197 973.697 901 974.004C917.93 974.205 937.832 973.845 950.867 960.815C958.292 953.393 962.863 935.26 963.674 925C965.077 907.265 951.847 890.668 937 882.782C911.77 869.38 882.413 870.091 855 864.803C844.939 862.863 830.729 861.701 823.278 853.787C814.488 844.451 822.941 831.377 830.04 824.004C844.982 808.484 876.615 789.554 873.812 764C873.226 758.661 870.586 753.868 866.906 750.04C841.059 723.157 814.89 758.659 789.004 762.964C780.972 764.3 766.331 755.161 758 753L758 752L761 750L754 748C761.689 739.707 775.428 735.095 785 728.911C804.672 716.201 827.242 695.568 835.302 673C845.625 644.091 830.383 603.5 794 614.888C766.926 623.363 754.386 644.908 733 661.1C717.953 672.493 698.08 676.487 682 686.468C673.977 691.447 668.686 703.54 660 706z"/>
<path style="fill:#000000; stroke:none;" d="M322 634L333 640L332 643C350.181 648.324 367.84 635.616 377 621C364.357 618.861 347.605 624.485 335 626.679C329.427 627.649 323.108 627.303 322 634M434 655L435 659L436 659L434 655z"/>
<path style="fill:#ffffff; stroke:none;" d="M138 657.428C117.681 660.339 100.4 670.623 93.7492 691C82.7997 724.547 104.759 773.658 145 768.714C207.601 761.021 204.514 647.9 138 657.428z"/>
<path style="fill:#000000; stroke:none;" d="M423.333 658.667L423.667 659.333L423.333 658.667M442 658L444 660L442 658M421 665L421 668L422 668L421 665M415 667L416 668L415 667M412 669L412 681L417 675L414 669L412 669M429.333 670.667L429.667 671.333L429.333 670.667M403 675L404 676L403 675M468 677L469 678L468 677z"/>
<path style="fill:#ffffff; stroke:none;" d="M429 678L430 679L429 678z"/>
<path style="fill:#000000; stroke:none;" d="M418 679L419 680L418 679M408 680L408 686L409 686L408 680z"/>
<path style="fill:#ffffff; stroke:none;" d="M460 681L461 682L460 681z"/>
<path style="fill:#000000; stroke:none;" d="M299 690L307 698L299 690z"/>
<path style="fill:#ffffff; stroke:none;" d="M623 693L627 695L623 693z"/>
<path style="fill:#000000; stroke:none;" d="M316 697L316 699L319 699L319 697L316 697z"/>
<path style="fill:#ffffff; stroke:none;" d="M634 697L634 698L639 699L634 697z"/>
<path style="fill:#000000; stroke:none;" d="M309 698L317 704L309 698z"/>
<path style="fill:#ffffff; stroke:none;" d="M332 699L336 701L332 699M646.667 700.333L647.333 700.667L646.667 700.333z"/>
<path style="fill:#000000; stroke:none;" d="M420.667 709.333L421.333 709.667L420.667 709.333M413 711L413 716L418 713L413 711M421 722L418 724C420.143 724.265 421.419 724.384 421 722M405 725C402.066 728.155 402.397 730.122 404 734L401 744L405 741L406 741L409 743L410 734L414 734L414 738L419 738L405 725M639 730L640 731L639 730M527 731L527 734L528 734L527 731M654 737L654 739L658 739L658 737L654 737M520 738L523 743L523 738L520 738M446.667 739.333L447.333 739.667L446.667 739.333M438 747L444 742L438 747z"/>
<path style="fill:#ffffff; stroke:none;" d="M515 745L514 749L515 745z"/>
<path style="fill:#000000; stroke:none;" d="M651 749L654 749L653 747L651 749M527 755L524 758L531 761L535 757L534 754L527 755z"/>
<path style="fill:#ffffff; stroke:none;" d="M515 758L514 761L515 758z"/>
<path style="fill:#000000; stroke:none;" d="M475 760L476 761L475 760M659 763L664 766L659 763z"/>
<path style="fill:#ffffff; stroke:none;" d="M499 764L500 765L499 764z"/>
<path style="fill:#000000; stroke:none;" d="M460 765L461 766L460 765z"/>
<path style="fill:#ffffff; stroke:none;" d="M619 770L621 776L618 777C619.102 780.57 621.041 785.251 616 786L615 791L611 814L599 819C595.659 824.237 583.758 838.652 592 844L590 850L596 851L596 852L589 851L591 856L598 855C597.584 858.254 599.917 865.291 604.383 861.214C606.628 859.165 608.757 850.121 609 847C613.421 846.984 616.711 847.151 619 843L617 837L617 836L617 835L615 818C619.167 820.003 621.298 818.322 625 816L625 822C626.11 827.795 627.352 831.355 633 834L633 828L634 828L640 846C642.476 844.691 643.137 843.624 640 843L640 842L658 838L656 834C666.445 828.515 657.709 807.329 667 801L663 788C671.996 786.749 657.001 777.903 654 777C652.352 782.873 646.375 791.18 642.331 795.896C639.753 798.902 635.094 800.759 637 805L631 808C627.099 800.375 631.249 788.839 622 785L623 780L627 781L625 777L628 776L628 775L625 776L625 772L622 773L619 770M499.333 772.667L499.667 773.333L499.333 772.667M453.667 773.333L454.333 773.667L453.667 773.333z"/>
<path style="fill:#000000; stroke:none;" d="M694 779L693 781L695 781L694 779M322 792L328 784L322 792z"/>
<path style="fill:#ffffff; stroke:none;" d="M464 794L470 789L464 794z"/>
<path style="fill:#000000; stroke:none;" d="M623 789L625 791L625 789L623 789z"/>
<path style="fill:#ffffff; stroke:none;" d="M689 798C694.887 798 706.263 800.29 710 795C702.262 794.389 694.629 791.078 689 798M457 802L464 795L457 802M883 796.529C870.067 799.455 855.365 811.686 850.479 824C844.963 837.902 857.292 850.899 871 851.91C877.339 852.377 883.807 851.919 890 850.5C899.282 848.373 909.416 845.067 914.001 836C924.421 815.392 905.367 791.468 883 796.529M686 799L687 800L686 799M454 804C448.909 812.88 438.102 826.557 430 833C422.071 839.305 411.999 842.848 408.333 853C406.573 857.874 398.993 876.284 407 878C403.426 855.545 420.474 846.981 434.715 834.332C440.491 829.201 446.067 821.262 453 818L454 804z"/>
<path style="fill:#000000; stroke:none;" d="M620 812L625 812L625 808L620 812M633 811L637 808L633 811M633 812L633 813L636 813L633 812M633 815L633 817L637 817L637 815L633 815M466 818L466 819L469 820L466 818M460 819L461 822L462 822L462 819L460 819M602 820L603 821L602 820M608.333 820.667L608.667 821.333L608.333 820.667M633 826L634 827L633 826z"/>
<path style="fill:#ffffff; stroke:none;" d="M705 834L705 835L711 840C706.555 842.513 703.84 845.8 705 851L707 851L717 838L712 837C712.079 831.912 708.855 831.738 705 834M701 833L701 835L703 835L703 833L701 833M628 837L628 838L631 840L633 836L628 837M627 839L625 844L626 844L629 840L627 839M701.333 841.667L701.667 842.333L701.333 841.667z"/>
<path style="fill:#000000; stroke:none;" d="M610 842L611 843L610 842z"/>
<path style="fill:#ffffff; stroke:none;" d="M646.667 843.333L647.333 843.667L646.667 843.333z"/>
<path style="fill:#000000; stroke:none;" d="M594 846L594 848L596 846L594 846M270 850L271 851L270 850M819 854L821 857L822 856L819 854z"/>
<path style="fill:#ffffff; stroke:none;" d="M690 857L690 859L692 859L692 857L690 857M687 867C689.454 869.297 690.546 869.297 693 867L687 867M734 876C737.168 874.017 738.564 872.785 738 869C734.471 870.599 733.455 872.143 734 876z"/>
<path style="fill:#000000; stroke:none;" d="M797 870L797 872L799 870L797 870z"/>
<path style="fill:#ffffff; stroke:none;" d="M683 873L679 880L675 881L671 895L667 896L668 900L660 908L658 923L654 921L646 931L648 937L645 936L643 939L656 945L656 944L653 943L653 942L656 943L654 941L654 940L654 939C661.898 934.094 670.225 913.175 670 904C678.861 901.124 688.229 882.817 689 874L683 873z"/>
<path style="fill:#000000; stroke:none;" d="M734 873L735 874L734 873z"/>
<path style="fill:#ffffff; stroke:none;" d="M730 877L727 883L730 880L734 880L730 877z"/>
<path style="fill:#000000; stroke:none;" d="M338 879L339 880L338 879M785.667 879.333L786.333 879.667L785.667 879.333z"/>
<path style="fill:#ffffff; stroke:none;" d="M536 906L519 915.352L494 928L489 943L479 945L479 946C500.604 959.006 525.375 957.083 544.91 940.192C550 935.791 552.785 924.93 558.225 922.117C561.69 920.325 567.414 922.756 571 923.385C578.385 924.681 585.597 924.317 593 924L599 897C601.803 895.398 603.52 894.154 602 891L602 890L604 887L586 881L586 882L590 882L590 883L578 880L565.004 881.36L547.83 897.609L536 906z"/>
<path style="fill:#000000; stroke:none;" d="M571 882L572 883L571 882M782 885L778 885L781 888L782 888L787 882L782 885M799 884L800 885L799 884z"/>
<path style="fill:#ffffff; stroke:none;" d="M725.333 885.667L725.667 886.333L725.333 885.667z"/>
<path style="fill:#000000; stroke:none;" d="M767 899L768 899L769 897L769 899L770 899L770 897C775.108 896.763 777.309 892.458 779 888L778 887C772.637 889.172 769.218 893.755 767 899z"/>
<path style="fill:#ffffff; stroke:none;" d="M716 903C721.384 901.048 724.556 893.226 726 888C720.394 889.718 717.18 897.565 716 903M364 894L361 909C367.938 905.762 372.536 898.439 364 894M544 898L547 898L546 896L544 898z"/>
<path style="fill:#000000; stroke:none;" d="M783 898L784 899L783 898z"/>
<path style="fill:#ffffff; stroke:none;" d="M784 901L785 902L784 901z"/>
<path style="fill:#000000; stroke:none;" d="M846 912C844.552 920.681 842.172 932.576 845 941C854.705 934.53 853.605 920.579 848 912L846 912z"/>
<path style="fill:#ffffff; stroke:none;" d="M713 913L714 914L713 913M710 917L710 921L711 921L712 917L710 917z"/>
<path style="fill:#000000; stroke:none;" d="M663 919L662 921L664 921L663 919M835 931L837 934L835 931M483 946L485 948L485 946L483 946z"/>
</svg>
